SplineFontDB: 3.0
FontName: Nobile
FullName: Nobile
FamilyName: Nobile
Weight: Book
Copyright: Copyright (c) 2010 by vernon adams. All rights reserved.
Version: 1.000
ItalicAngle: 0
UnderlinePosition: -292
UnderlineWidth: 40
Ascent: 1638
Descent: 410
sfntRevision: 0x00010000
LayerCount: 2
Layer: 0 0 "Back"  1
Layer: 1 0 "Fore"  0
NeedsXUIDChange: 1
XUID: [1021 759 1887733602 3612439]
FSType: 0
OS2Version: 2
OS2_WeightWidthSlopeOnly: 0
OS2_UseTypoMetrics: 1
CreationTime: 1275168240
ModificationTime: 1309353215
PfmFamily: 17
TTFWeight: 400
TTFWidth: 5
LineGap: 0
VLineGap: 0
Panose: 2 0 3 3 0 0 0 0 0 0
OS2TypoAscent: 927
OS2TypoAOffset: 1
OS2TypoDescent: -313
OS2TypoDOffset: 1
OS2TypoLinegap: 0
OS2WinAscent: 0
OS2WinAOffset: 1
OS2WinDescent: 0
OS2WinDOffset: 1
HheadAscent: 0
HheadAOffset: 1
HheadDescent: 0
HheadDOffset: 1
OS2SubXSize: 1331
OS2SubYSize: 1433
OS2SubXOff: 0
OS2SubYOff: 286
OS2SupXSize: 1331
OS2SupYSize: 1433
OS2SupXOff: 0
OS2SupYOff: 983
OS2StrikeYSize: 102
OS2StrikeYPos: 512
OS2Vendor: 'newt'
OS2CodePages: 00000001.00000000
OS2UnicodeRanges: 800000ef.5000204b.00000000.00000000
MarkAttachClasses: 1
DEI: 91125
TtTable: prep
PUSHW_2
 2048
 2048
MUL
DUP
PUSHB_1
 10
SWAP
WS
DUP
PUSHB_1
 0
SWAP
WCVTF
PUSHB_1
 16
RCVT
DUP
DUP
PUSHB_1
 40
ADD
FLOOR
DUP
ROLL
NEQ
IF
PUSHB_1
 10
RS
MUL
SWAP
DIV
PUSHB_1
 9
SWAP
WS
PUSHB_4
 5
 6
 3
 2
CALL
PUSHB_4
 7
 12
 3
 2
CALL
PUSHB_4
 13
 18
 3
 2
CALL
ELSE
PUSHB_2
 9
 10
RS
WS
EIF
PUSHB_3
 11
 40
 2
RCVT
GT
WS
PUSHB_4
 7
 12
 4
 2
CALL
EndTTInstrs
TtTable: fpgm
PUSHB_1
 0
FDEF
DUP
ABS
PUSHB_1
 32
ADD
FLOOR
SWAP
PUSHB_1
 0
LT
IF
NEG
EIF
ENDF
PUSHB_1
 1
FDEF
DUP
ABS
DUP
PUSHB_1
 192
LT
PUSHB_1
 4
MINDEX
AND
PUSHB_1
 11
RS
OR
IF
POP
SWAP
POP
ELSE
ROLL
IF
DUP
PUSHB_1
 80
LT
IF
POP
PUSHB_1
 64
EIF
ELSE
DUP
PUSHB_1
 56
LT
IF
POP
PUSHB_1
 56
EIF
EIF
DUP
PUSHB_1
 5
RCVT
SUB
ABS
PUSHB_1
 40
LT
IF
POP
PUSHB_1
 5
RCVT
DUP
PUSHB_1
 48
LT
IF
POP
PUSHB_1
 48
EIF
ELSE
DUP
PUSHB_1
 192
LT
IF
DUP
FLOOR
DUP
ROLL
ROLL
SUB
DUP
PUSHB_1
 10
LT
IF

StartChar: .notdef
Encoding: 65536 -1 0
Width: 831
Flags: HW
LayerCount: 2
Fore
SplineSet
144 0 m 1
 144 1365 l 1
 688 1365 l 1
 688 0 l 1
 144 0 l 1
212 68 m 1
 620 68 l 1
 620 1297 l 1
 212 1297 l 1
 212 68 l 1
EndSplineSet
EndChar

StartChar: exclam
Encoding: 33 33 4
Width: 842
Flags: HW
LayerCount: 2
Fore
SplineSet
518 186 m 1
 518 -16 l 1
 309 -16 l 1
 309 186 l 1
 518 186 l 1
483 399 m 1
 359 399 l 1
 309 1579 l 1
 533 1579 l 1
 483 399 l 1
EndSplineSet
EndChar

StartChar: quotedbl
Encoding: 34 34 5
Width: 830
Flags: HW
LayerCount: 2
Fore
SplineSet
470 1508 m 1
 470 1579 l 1
 698 1579 l 1
 698 1508 l 1
 638 1058 l 1
 530 1058 l 1
 470 1508 l 1
132 1508 m 1
 132 1579 l 1
 360 1579 l 1
 360 1508 l 1
 300 1058 l 1
 192 1058 l 1
 132 1508 l 1
EndSplineSet
EndChar

StartChar: numbersign
Encoding: 35 35 6
Width: 1043
Flags: HW
LayerCount: 2
Fore
SplineSet
592 561 m 1
 406 561 l 1
 373 295 l 1
 232 295 l 1
 265 561 l 1
 99 561 l 1
 99 684 l 1
 275 684 l 1
 302 905 l 1
 127 905 l 1
 127 1030 l 1
 316 1030 l 1
 347 1309 l 1
 486 1309 l 1
 455 1030 l 1
 644 1030 l 1
 672 1307 l 1
 814 1307 l 1
 783 1030 l 1
 943 1030 l 1
 943 905 l 1
 771 905 l 1
 744 684 l 1
 920 684 l 1
 920 561 l 1
 732 561 l 1
 701 295 l 1
 560 295 l 1
 592 561 l 1
418 684 m 1
 601 684 l 1
 627 905 l 1
 445 905 l 1
 418 684 l 1
EndSplineSet
EndChar

StartChar: dollar
Encoding: 36 36 7
Width: 1242
Flags: HW
LayerCount: 2
Fore
SplineSet
1072 340 m 0
 1072 98.4841238331 907.260562752 -0.059954371473 686 -18 c 1
 686 -178 l 1
 583 -178 l 1
 583 -20 l 1
 499.666666667 -14 432 -2.33333333333 380 15 c 2
 234 63 l 1
 283 207 l 1
 316.934444648 194.660201946 349.037334279 181.216409893 386 167 c 1
 451.375901359 150.358861472 514.764785065 136.754001697 583 129 c 1
 583 572 l 1
 477 595 l 2
 303.803221472 631.590868703 170 721.066304045 170 929 c 0
 170 1039.55168035 229.583960634 1109.86716851 291 1159 c 1
 360.06401101 1211.90009354 458.797066742 1236.31080396 583 1240 c 1
 583 1390 l 1
 686 1390 l 1
 686 1236 l 1
 787.66521404 1234.00656443 905.643714651 1215.97664604 984.5 1190.5 c 128
 1006.16666667 1183.5 1017 1177.33333333 1017 1172 c 2
 1017 1171 l 1
 965 1040 l 1
 952.507992158 1044.99680314 940.280748114 1048.09744528 927 1054 c 1
 896.508353941 1062.84168727 866.226645386 1071.89331205 836 1081 c 1
 686 1098 l 1
 686 709 l 1
 718 698 l 1
 834.350427669 656.606097848 930.110416174 614.611163075 998.5 542 c 128
 1046.7811427 490.738539854 1072 431.84575723 1072 340 c 0
686 134 m 1
 811.240997607 136.504819952 907 203.015498304 907 329 c 0
 907 465.803960822 787.085201089 501.093049591 686 539 c 1
 686 134 l 1
583 745 m 1
 583 1100 l 1
 488.705933149 1100 416.850419325 1091.45958648 375 1042 c 1
 347 1007.33333333 333 968 333 924 c 0
 333 854.456489946 376.053271376 822.379226653 424 795.5 c 128
 446 783.166666667 473.666666667 771 507 759 c 1
 583 745 l 1
EndSplineSet
EndChar

StartChar: percent
Encoding: 37 37 8
Width: 1779
Flags: HW
LayerCount: 2
Fore
SplineSet
1345 89 m 256
 1189.81519455 89 1157 232.043445537 1157 393 c 0
 1157 592.333333333 1219.66666667 692 1345 692 c 256
 1470.33333333 692 1533 592.333333333 1533 393 c 0
 1533 232.022511476 1500.18802393 89 1345 89 c 256
1345 796 m 256
 1106.40688997 796 1024 615.741797123 1024 372 c 0
 1024 187.383540153 1094.87816123 49.8929391265 1231 -1.5 c 128
 1263.66666667 -13.8333333333 1301.66666667 -20.3333333333 1345 -21 c 0
 1568.22944435 -21 1666 152.379338598 1666 372 c 0
 1666 615.760210289 1583.59857537 796 1345 796 c 256
434 788 m 256
 278.815194552 788 246 931.043445537 246 1092 c 0
 246 1291.33333333 308.666666667 1391 434 1391 c 256
 559.333333333 1391 622 1291.33333333 622 1092 c 0
 622 931.022511476 589.188023926 788 434 788 c 256
434 1495 m 256
 195.406889967 1495 113 1314.74179712 113 1071 c 0
 113 886.383540153 183.878161233 748.892939126 320 697.5 c 128
 352.666666667 685.166666667 390.666666667 678.666666667 434 678 c 0
 657.229444349 678 755 851.379338598 755 1071 c 0
 755 1314.76021029 672.598575372 1495 434 1495 c 256
479 37 m 1
 1161 1497 l 1
 1290 1430 l 1
 609 -22 l 1
 479 37 l 1
EndSplineSet
EndChar

StartChar: ampersand
Encoding: 38 38 9
Width: 1617
Flags: HW
LayerCount: 2
Fore
SplineSet
660 1310 m 0
 516.757320174 1310 437.588937224 1263.3617153 427 1131 c 1
 427 1121 l 2
 427 1043.76005699 477.816813375 990.635681381 519.5 952.5 c 128
 549.483208416 925.068554003 580.194568157 903.025642272 612 883 c 1
 703.711791942 910.295176173 780.857846613 931.79924511 840 977.5 c 128
 881.483906276 1009.55574576 901 1048.6753311 901 1119 c 0
 901 1253.31800489 795.959594772 1310 660 1310 c 0
1197 391 m 1
 1206.05777478 524.278686042 1211 656.324990358 1211 796 c 1
 1375 796 l 1
 1375 639.498915617 1362.40066259 475.403975539 1340 341 c 1
 1328 277 l 1
 1554 95 l 1
 1468 -7 l 1
 1257 170 l 1
 1194.23335324 50.9598078613 1022.18160541 -4.70891023173 861.5 -27 c 128
 803.833333333 -35 748.666666667 -39 696 -39 c 0
 439.963029065 -39 249.486560651 45.0735550029 167.5 216.5 c 128
 141.833333333 270.166666667 129 330 129 396 c 0
 129 638.161589336 261.332736857 763.872377094 463 822 c 1
 388.623567569 874.063502702 313.298912281 943.996016373 276 1036 c 128
 266 1060.66666667 261 1086.33333333 261 1113 c 0
 261 1281.87308101 359.423124664 1378.77389251 490.5 1421 c 128
 540.166666667 1437 596.666666667 1445 660 1445 c 0
 845.892457584 1445 981.06675407 1374.64554427 1035.5 1245.5 c 128
 1052.5 1205.16666667 1061 1161.66666667 1061 1115 c 0
 1061 956.072428583 968.562840055 885.231954352 854 836.5 c 128
 809.333333333 817.5 758.666666667 799 702 781 c 1
 1197 391 l 1
311 418 m 0
 311 173.569407201 448.980637883 100 696 100 c 0
 929.333333333 100 1079 152 1145 256 c 1
 557 726 l 1
 393 690.666666667 311 588 311 418 c 0
EndSplineSet
EndChar

StartChar: quotesingle
Encoding: 39 39 10
Width: 621
Flags: HW
LayerCount: 2
Fore
SplineSet
197 1508 m 1
 197 1579 l 1
 425 1579 l 1
 425 1508 l 1
 365 1058 l 1
 257 1058 l 1
 197 1508 l 1
EndSplineSet
EndChar

StartChar: parenleft
Encoding: 40 40 11
Width: 828
Flags: HW
LayerCount: 2
Fore
SplineSet
664 1493 m 1
 534.640374817 1379.41593886 444.055754028 1195.47998537 394 989 c 128
 372.666666667 901 362 802.666666667 362 694 c 256
 362 486.982873528 403.353287024 306.364320485 464.5 166.5 c 128
 510.69462792 60.8364257912 573.335169523 -39.1347563802 648 -97 c 1
 565 -205 l 1
 471.374920852 -145.079949345 394.532897862 -44.4628266025 333 60 c 128
 237.610026627 221.941117586 176 435.602313437 176 696 c 0
 176 1012.40738587 265.596869105 1253.95289378 399 1435 c 128
 445.146287954 1497.62710508 496.950111739 1554.71414281 553 1595 c 1
 664 1493 l 1
EndSplineSet
EndChar

StartChar: parenright
Encoding: 41 41 12
Width: 829
Flags: HW
LayerCount: 2
Fore
SplineSet
466 694 m 0
 466 981.716571835 391.780739539 1223.08257944 273 1387 c 128
 239.666666667 1433 209 1467.66666667 181 1491 c 1
 264 1599 l 1
 346.749858919 1541.71163613 417.386585432 1456.62722256 478.5 1362 c 128
 583.363817795 1199.63021761 653 981.171400702 653 710 c 0
 653 381.118592247 566.001979792 133.78162508 424 -49.5 c 128
 376.337782163 -111.01751372 321.274476002 -165.081425817 264 -205 c 1
 164 -99 l 1
 293.978446017 12.4100965859 384.968351882 201.583674434 434.5 406 c 128
 455.5 492.666666667 466 588.666666667 466 694 c 0
EndSplineSet
EndChar

StartChar: asterisk
Encoding: 42 42 13
Width: 912
Flags: HW
LayerCount: 2
Fore
SplineSet
456 1292 m 1
 595 1567 l 1
 698 1509 l 1
 540 1237 l 1
 851 1237 l 1
 851 1145 l 1
 542 1145 l 1
 712 872 l 1
 610 815 l 1
 456 1090 l 1
 302 815 l 1
 200 872 l 1
 370 1145 l 1
 61 1145 l 1
 61 1237 l 1
 372 1237 l 1
 214 1509 l 1
 317 1567 l 1
 456 1292 l 1
EndSplineSet
EndChar

StartChar: plus
Encoding: 43 43 14
Width: 1202
Flags: HW
LayerCount: 2
Fore
SplineSet
985 518 m 1
 671 518 l 1
 671 174 l 1
 530 174 l 1
 530 518 l 1
 217 518 l 1
 217 651 l 1
 530 651 l 1
 530 995 l 1
 671 995 l 1
 671 651 l 1
 985 651 l 1
 985 518 l 1
EndSplineSet
EndChar

StartChar: comma
Encoding: 44 44 15
Width: 616
Flags: HW
LayerCount: 2
Fore
SplineSet
160 0 m 1
 160 243 l 1
 441 243 l 1
 441 44 l 2
 441 -141.358359057 355.337480644 -256.927238364 212 -303 c 1
 161 -209 l 1
 247.516891816 -172.571835025 291 -121.687375371 291 0 c 1
 160 0 l 1
EndSplineSet
EndChar

StartChar: hyphen
Encoding: 45 45 16
Width: 876
Flags: HW
LayerCount: 2
Fore
SplineSet
776 508 m 1
 100 508 l 1
 100 665 l 1
 776 665 l 1
 776 508 l 1
EndSplineSet
EndChar

StartChar: period
Encoding: 46 46 17
Width: 651
Flags: HW
LayerCount: 2
Fore
SplineSet
215 98 m 256
 215 164.005244158 260.795266462 213 327 213 c 0
 390.687372009 213 435 161.503263587 435 98 c 256
 435 34.4949943186 390.686271739 -17 327 -17 c 0
 260.185359666 -17 215 31.5269994594 215 98 c 256
EndSplineSet
EndChar

StartChar: slash
Encoding: 47 47 18
Width: 794
Flags: HW
LayerCount: 2
Fore
SplineSet
0 -117 m 1
 625 1731 l 1
 794 1669 l 1
 170 -179 l 1
 0 -117 l 1
EndSplineSet
EndChar

StartChar: zero
Encoding: 48 48 19
Width: 1409
Flags: HW
LayerCount: 2
Fore
SplineSet
1087 606 m 0
 1087 876.150208493 974.725298069 1069 702 1069 c 0
 422.162915612 1069 321 868.497203412 321 592 c 0
 321 371.408767988 384.378269489 214.038660594 532 145.5 c 128
 580.078972821 123.177619762 637.731842716 111 702 111 c 0
 988.267780813 111 1087 321.200317849 1087 606 c 0
1273 590 m 0
 1273 305.427920548 1150.5637545 108.931065143 952 18 c 128
 880.666666667 -14.6666666667 797.333333333 -31 702 -31 c 0
 415.630412203 -31 258.164802508 117.554063803 181.5 325 c 128
 152.706241041 402.912524241 135 493.48760904 135 590 c 0
 135 876.428725897 254.070059963 1073.90842281 455 1163 c 128
 525.666666667 1194.33333333 608 1210 702 1210 c 0
 987.001454174 1210 1149.20638452 1067.44154778 1225.5 861 c 128
 1254.69457966 782.002902104 1273 688.912246622 1273 590 c 0
EndSplineSet
EndChar

StartChar: one
Encoding: 49 49 20
Width: 800
Flags: HW
LayerCount: 2
Fore
SplineSet
364 0 m 1
 364 1057 l 1
 157 957 l 1
 104 1083 l 1
 361 1202 l 1
 551 1202 l 1
 551 0 l 1
 364 0 l 1
EndSplineSet
EndChar

StartChar: two
Encoding: 50 50 21
Width: 1170
Flags: HW
LayerCount: 2
Fore
SplineSet
803 846 m 0
 803 996.820670234 686.755072173 1059 527 1059 c 0
 444.485569313 1059 358.410940624 1035.4048625 299 1009 c 2
 262 992 l 1
 209 1108 l 1
 209 1108 209 1108 229 1122.5 c 128
 269.158888779 1151.61519436 329.614473902 1169.47816617 396 1184 c 128
 438.666666667 1193.33333333 489.666666667 1198 549 1198 c 0
 800.852552583 1198 965 1092.99073412 965 845 c 0
 965 753.535741685 941.641620819 692.220299052 901 629 c 128
 837.925016538 530.88335906 751.550724093 456.417051689 648 376 c 1
 369 152 l 1
 965 152 l 1
 965 0 l 1
 150 0 l 1
 150 146 l 1
 558 480 l 2
 640.378734368 548.287635068 705.253632072 603.500952999 756 681.5 c 128
 787.630003277 730.116486518 803 773.924810619 803 846 c 0
EndSplineSet
EndChar

StartChar: three
Encoding: 51 51 22
Width: 1187
Flags: HW
LayerCount: 2
Fore
SplineSet
507 614 m 1
 677.065611135 614 819 672.040777522 819 843 c 0
 819 1010.67118197 707.852192145 1063 530 1063 c 0
 452.849353096 1063 378.237668154 1046.2250513 318.5 1028 c 128
 298.833333333 1022 283 1016 271 1010 c 2
 233 992 l 1
 183 1125 l 1
 234 1147 l 2
 291.092404226 1171.46817324 377.669748485 1188.03630622 450.5 1199 c 128
 481.5 1203.66666667 510 1206 536 1206 c 0
 742.843282549 1206 903.081804643 1138.29548839 963 988.5 c 128
 977 953.5 984 912.666666667 984 866 c 0
 984 715.365228774 910.618831579 624.80941579 811 575 c 128
 777.489848795 558.244924398 737.785696841 545 695 545 c 1
 878.832643738 506.523400148 1023 394.550946982 1023 166 c 0
 1023 32.3536633652 956.106939944 -55.2216717669 873.5 -110.5 c 128
 794.366148757 -163.454231283 679.921747996 -198 555 -198 c 0
 423.466577691 -198 290.439549547 -169.25369761 200 -126 c 2
 150 -102 l 1
 204 31 l 1
 294.099252463 -14.0496262314 418.998411685 -59 559 -59 c 0
 734.598983839 -59 843 16.5358266754 843 186 c 0
 843 350.666666667 731 445.666666667 507 471 c 1
 507 614 l 1
EndSplineSet
EndChar

StartChar: four
Encoding: 52 52 23
Width: 1247
Flags: HW
LayerCount: 2
Fore
SplineSet
784 1208 m 1
 946 1169 l 1
 946 207 l 1
 1132 207 l 1
 1132 68 l 1
 946 68 l 1
 946 -260 l 1
 775 -260 l 1
 775 68 l 1
 128 68 l 1
 100 205 l 1
 784 1208 l 1
775 930 m 1
 285 205 l 1
 775 205 l 1
 775 930 l 1
EndSplineSet
EndChar

StartChar: five
Encoding: 53 53 24
Width: 1209
Flags: HW
LayerCount: 2
Fore
SplineSet
209 31 m 1
 293.714051822 -11.3570259109 412.79551992 -56 541 -56 c 0
 752.333333333 -56 858 44 858 244 c 0
 858 441.177567286 756.26307371 562 561 562 c 0
 489.666666667 562 390 530.666666667 262 468 c 1
 194 537 l 1
 194 1169 l 1
 942 1169 l 1
 942 1018 l 1
 339 1018 l 1
 339 622 l 2
 339 621.333333333 343.5 625 352.5 633 c 128
 399.591550949 674.859156399 484.962621803 698 579 698 c 0
 794.112222463 698 934.979687359 589.990483309 997 434 c 128
 1019 378.666666667 1030 316.666666667 1030 248 c 0
 1030 22.5176721435 913.876285801 -116.6966703 744 -175.5 c 128
 683.333333333 -196.5 615 -207 539 -207 c 0
 401.906570442 -207 276.759398661 -170.332123492 187 -127 c 128
 167.666666667 -117.666666667 158 -113.666666667 158 -115 c 2
 209 31 l 1
EndSplineSet
EndChar

StartChar: six
Encoding: 54 54 25
Width: 1277
Flags: HW
LayerCount: 2
Fore
SplineSet
321 401 m 0
 321 161.686621441 406.903443347 -14 648 -14 c 0
 857.560959898 -14 972 129.979658482 972 335 c 0
 972 528.027351455 871.360878795 657 682 657 c 0
 561.539667997 657 450.575865535 609.99281429 376.5 562 c 128
 352.833333333 546.666666667 336.333333333 533.666666667 327 523 c 1
 323 497.666666667 321 457 321 401 c 0
143 425 m 0
 143 781.233754138 298.457508946 1016.04554089 508.5 1164 c 128
 607.909288233 1234.02415272 725.729656943 1287.71024143 858 1319 c 1
 901 1174 l 1
 667.320426326 1124.56778249 481.152065028 992.856628366 388.5 799 c 128
 366.833333333 753.666666667 351 703.666666667 341 649 c 1
 421.666666667 745 535.333333333 793 682 793 c 0
 906.183627314 793 1052.75220133 682.64427655 1115.5 519.5 c 128
 1137.16666667 463.166666667 1148 401.666666667 1148 335 c 256
 1148 104.609506493 1030.13586756 -47.4941301097 863.5 -117 c 128
 801.166666667 -143 729.333333333 -156 648 -156 c 0
 302.871598205 -156 143 79.2180764804 143 425 c 0
EndSplineSet
EndChar

StartChar: seven
Encoding: 55 55 26
Width: 1236
Flags: HW
LayerCount: 2
Fore
SplineSet
1004 1229 m 1
 1061 1107 l 1
 489 -176 l 1
 321 -100 l 1
 846 1074 l 1
 168 1074 l 1
 168 1229 l 1
 1004 1229 l 1
EndSplineSet
EndChar

StartChar: eight
Encoding: 56 56 27
Width: 1225
Flags: HW
LayerCount: 2
Fore
SplineSet
401 636 m 1
 260.288177272 682.903940909 139 779.590558197 139 968 c 0
 139 1163.4061326 272.558795582 1265.83646276 428.5 1309.5 c 128
 486.833333333 1325.83333333 550 1334 618 1334 c 0
 824.545937342 1334 978.761956858 1258.99453395 1049.5 1122.5 c 128
 1073.16666667 1076.83333333 1085 1024.66666667 1085 966 c 0
 1085 776.828958166 963.187131113 682.636351611 823 634 c 1
 987.219711745 582.763449936 1085 445.239374468 1085 231 c 0
 1085 -33.371481827 883.041826117 -148 618 -148 c 0
 408.33842151 -148 249.261129483 -75.2312202134 176.5 63.5 c 128
 151.5 111.166666667 139 167.666666667 139 233 c 0
 139 447.229587903 236.79231292 584.767201631 401 636 c 1
317 255 m 0
 317 61.4032241579 421.688388816 -9 618 -9 c 0
 813.77892905 -9 907 60.7379311242 907 253 c 0
 907 399.578234661 835.371292437 503.639685572 734 550.5 c 128
 698.666666667 566.833333333 660 575 618 575 c 0
 473.033634812 575 381.514375572 489.493398206 340 383 c 128
 324.666666667 343.666666667 317 301 317 255 c 0
618 1199 m 0
 448.353881344 1199 317 1137.98523686 317 966 c 0
 317 833.178573818 405.527547089 749.750853415 503.5 712 c 128
 539.833333333 698 578 691 618 691 c 0
 748.885996424 691 841.649980068 764.355391884 884 855.5 c 128
 899.333333333 888.5 907 924.666666667 907 964 c 0
 907 1134.54078798 786.902291188 1199 618 1199 c 0
EndSplineSet
EndChar

StartChar: nine
Encoding: 57 57 28
Width: 1278
Flags: HW
LayerCount: 2
Fore
SplineSet
956 757 m 0
 956 996.027169598 869.785760508 1172 629 1172 c 0
 420.007350359 1172 305 1027.43545714 305 823 c 0
 305 629.972648545 405.639121205 501 595 501 c 0
 716.008803204 501 826.238150221 546.886688875 900.5 595 c 128
 924.166666667 610.333333333 940.666666667 623.666666667 950 635 c 1
 954 659.666666667 956 700.333333333 956 757 c 0
1134 733 m 0
 1134 378.246144698 980.0040273 143.682107452 771.5 -4.5 c 128
 671.997241128 -75.2157971858 552.327849358 -129.795609725 419 -161 c 1
 376 -16 l 1
 610.779972459 31.8255499453 796.724134494 167.797406597 889 361 c 128
 910.333333333 405.666666667 926 455 936 509 c 1
 854.666666667 413 741 365 595 365 c 0
 370.121413044 365 223.438849003 474.098021368 161 638 c 128
 139.666666667 694 129 755.666666667 129 823 c 0
 129 1053.39049351 246.864132443 1205.49413011 413.5 1275 c 128
 475.833333333 1301 547.666666667 1314 629 1314 c 0
 974.128401795 1314 1134 1078.78192352 1134 733 c 0
EndSplineSet
EndChar

StartChar: colon
Encoding: 58 58 29
Width: 749
Flags: HW
LayerCount: 2
Fore
SplineSet
240 281 m 1
 510 281 l 1
 510 0 l 1
 240 0 l 1
 240 281 l 1
240 864 m 1
 510 864 l 1
 510 583 l 1
 240 583 l 1
 240 864 l 1
EndSplineSet
EndChar

StartChar: semicolon
Encoding: 59 59 30
Width: 678
Flags: HW
LayerCount: 2
Fore
SplineSet
159 864 m 1
 439 864 l 1
 439 583 l 1
 159 583 l 1
 159 864 l 1
158 0 m 1
 158 293 l 1
 439 293 l 1
 439 44 l 2
 439 -122.70097366 346.311683912 -214.053804597 210 -253 c 1
 159 -159 l 1
 237.464388328 -132.156919782 289 -102.99780113 289 0 c 1
 158 0 l 1
EndSplineSet
EndChar

StartChar: less
Encoding: 60 60 31
Width: 1704
Flags: HW
LayerCount: 2
Fore
SplineSet
217 722 m 1
 1487 1187 l 1
 1487 1019 l 1
 405 641 l 1
 1487 263 l 1
 1487 95 l 1
 217 560 l 1
 217 722 l 1
EndSplineSet
EndChar

StartChar: equal
Encoding: 61 61 32
Width: 1022
Flags: HW
LayerCount: 2
Fore
SplineSet
805 508 m 1
 217 508 l 1
 217 639 l 1
 805 639 l 1
 805 508 l 1
805 280 m 1
 217 280 l 1
 217 411 l 1
 805 411 l 1
 805 280 l 1
EndSplineSet
EndChar

StartChar: greater
Encoding: 62 62 33
Width: 1704
Flags: HW
LayerCount: 2
Fore
SplineSet
1487 560 m 1
 217 95 l 1
 217 263 l 1
 1299 641 l 1
 217 1019 l 1
 217 1187 l 1
 1487 722 l 1
 1487 560 l 1
EndSplineSet
EndChar

StartChar: question
Encoding: 63 63 34
Width: 1182
Flags: HW
LayerCount: 2
Fore
SplineSet
150 1475 m 1
 250.299136823 1529.26018877 394.344742588 1579 556 1579 c 0
 767.228830384 1579 928.091798304 1521.82880857 1002 1384 c 128
 1026.66666667 1338 1039 1282 1039 1216 c 0
 1039 944.476990259 852.357433528 820.415434848 664 737 c 1
 584 704 l 2
 558.571605317 693.529484542 533.139864591 684.787778988 505 675 c 1
 505 292 l 1
 325 292 l 1
 325 777 l 1
 476.624523667 828.301530564 611.926395184 877.87390885 717 957.5 c 128
 791.491963899 1013.95094139 843.391378776 1081.7844694 848 1197 c 1
 848 1378.48304042 721.039963817 1418 537 1418 c 0
 418.673203323 1418 306.830772412 1388.90329852 233.5 1347 c 128
 217.166666667 1337.66666667 209 1332.66666667 209 1332 c 2
 150 1475 l 1
511 64 m 0
 511 4.08269127366 465.921268835 -40 406 -40 c 0
 344.138522553 -40 302 7.9220025529 302 70 c 0
 302 127.966454895 352.2703484 169 410 169 c 0
 466.621749512 169 511 121.128855116 511 64 c 0
EndSplineSet
EndChar

StartChar: at
Encoding: 64 64 35
Width: 1939
Flags: HW
LayerCount: 2
Fore
SplineSet
1234 987 m 1
 1198.43178328 992.675779264 1106.31792086 1008 1058 1008 c 0
 861.704966003 1008 726.410727341 891.367376778 665 751 c 128
 641.666666667 697.666666667 630 638.333333333 630 573 c 0
 630 411 705 330 855 330 c 0
 977.633451403 330 1061.71829451 387.378051294 1119 466 c 128
 1194.4749029 569.593003985 1230.55373041 720.083511359 1233 906 c 2
 1234 987 l 1
1355 199 m 0
 1276.00916571 199 1255 238.403052698 1255 316 c 2
 1255 548 l 1
 1225.03171045 400.655909723 1133.77926203 288.107945048 1007.5 231.5 c 128
 959.166666667 209.833333333 903 199 839 199 c 0
 601.013365852 199 475 351.853982041 475 590 c 0
 475 750.858985086 552.899543028 871.575028744 637 956.5 c 128
 729.159555497 1049.56308055 861.858449401 1128 1042 1128 c 0
 1118.09346766 1128 1202.76291303 1112.77963587 1273 1104 c 1
 1327 1096 l 1
 1382 987 l 1
 1382 317 l 1
 1597.95239829 317 1636 534.674436445 1636 758 c 0
 1636 1148.91182547 1380.41492761 1317 993 1317 c 0
 655.234052269 1317 441.768694418 1139.01324729 346.5 889.5 c 128
 311.5 797.833333333 294 694 294 578 c 0
 294 274.009033635 448.535588054 100.101881951 683 25 c 128
 768.333333333 -2.33333333333 867.333333333 -16 980 -16 c 0
 1118.63877078 -16 1235.41628297 8.35382790966 1326.5 46.5 c 128
 1382.56688586 69.9810034791 1429.61949335 97.6194933493 1461 129 c 1
 1467 134 l 1
 1558 42 l 1
 1439.97723209 -90.7756139034 1219.83016031 -155 970 -155 c 0
 685.62121924 -155 472.625782301 -75.2452327219 332.5 63.5 c 128
 212.350555037 182.465706589 135 354.580049486 135 578 c 0
 135 966.989428022 322.223442395 1218.61676022 576.5 1354.5 c 128
 688.763147648 1414.49247573 825.924043267 1456 987 1456 c 0
 1389.83387329 1456 1671.56928595 1283.54751113 1766 973.5 c 128
 1786 907.833333333 1796 835.333333333 1796 756 c 0
 1796 504.169803055 1704.23580733 335.698957027 1543 248.5 c 128
 1490.1113917 219.896977146 1426.23994953 199 1355 199 c 0
EndSplineSet
EndChar

StartChar: A
Encoding: 65 65 36
Width: 1365
Flags: HW
LayerCount: 2
Fore
SplineSet
999 485 m 1
 682 1460 l 1
 365 485 l 1
 999 485 l 1
1032 383 m 1
 332 383 l 1
 209 0 l 1
 16 0 l 1
 532 1579 l 1
 832 1579 l 1
 1348 0 l 1
 1155 0 l 1
 1032 383 l 1
EndSplineSet
EndChar

StartChar: B
Encoding: 66 66 37
Width: 1466
Flags: HW
LayerCount: 2
Fore
SplineSet
1074 1188 m 0
 1074 1352.20085945 973.563493167 1398.03583437 822 1421 c 128
 756 1431 670.666666667 1436 566 1436 c 2
 395 1436 l 1
 395 915 l 1
 654 915 l 2
 800.784282565 915 916.237272519 929.597947057 992.5 987 c 128
 1050.03276396 1030.30423094 1074 1092.53303474 1074 1188 c 0
1139 466 m 0
 1139 737.103701455 934.313757557 786 658 786 c 2
 395 786 l 1
 395 143 l 1
 621 143 l 2
 845.363957855 143 1041.40950895 160.675665851 1110 308.5 c 128
 1129.33333333 350.166666667 1139 402.666666667 1139 466 c 0
1239 1188 m 0
 1239 969.756712581 1107.48976012 891.155991251 914 862 c 1
 1185.33333333 830.666666667 1321 688 1321 434 c 0
 1321 70.1910614657 985.800763534 0 621 0 c 2
 201 0 l 1
 201 1579 l 1
 562 1579 l 2
 735.449473221 1579 879.424926343 1566.78926231 1000.5 1527.5 c 128
 1155.85517239 1477.08673214 1239 1387.98789075 1239 1188 c 0
EndSplineSet
EndChar

StartChar: C
Encoding: 67 67 38
Width: 1356
Flags: HW
LayerCount: 2
Fore
SplineSet
316 784 m 0
 316 393.626781308 436.212908482 132 815 132 c 0
 961.771817635 132 1084.18251443 191.832131494 1189 239 c 1
 1245 100 l 1
 1111.41140181 37.0225179974 980.670670886 -20 795 -20 c 0
 445.766096773 -20 256.082078956 146.705131114 169 406.5 c 128
 132.102655441 516.577077935 115 647.20592646 115 788 c 0
 115 1214.69908018 260.004022128 1498.71898003 596.5 1585 c 128
 663.728110428 1602.23797703 737.685284799 1610 815 1610 c 0
 979.973879226 1610 1093.09143472 1575.23646034 1217 1530 c 1
 1172 1385 l 1
 1062.8080723 1430.35664689 960.490782049 1458 815 1458 c 0
 426.352501423 1458 316 1174.86152849 316 784 c 0
EndSplineSet
EndChar

StartChar: D
Encoding: 68 68 39
Width: 1556
Flags: HW
LayerCount: 2
Fore
SplineSet
1234 789 m 0
 1234 1156.07304196 1141.81888115 1436 776 1436 c 2
 395 1436 l 1
 395 143 l 1
 776 143 l 2
 1144.44411573 143 1234 420.828139324 1234 789 c 0
776 1579 m 2
 1215.33333333 1579 1435 1315.33333333 1435 788 c 0
 1435 262.666666667 1215.33333333 0 776 0 c 2
 201 0 l 1
 201 1579 l 1
 776 1579 l 2
EndSplineSet
EndChar

StartChar: E
Encoding: 69 69 40
Width: 1315
Flags: HW
LayerCount: 2
Fore
SplineSet
1184 0 m 1
 201 0 l 1
 201 1579 l 1
 1171 1579 l 1
 1171 1436 l 1
 395 1436 l 1
 395 891 l 1
 1073 891 l 1
 1073 776 l 1
 395 776 l 1
 395 143 l 1
 1184 143 l 1
 1184 0 l 1
EndSplineSet
EndChar

StartChar: F
Encoding: 70 70 41
Width: 1241
Flags: HW
LayerCount: 2
Fore
SplineSet
395 762 m 1
 395 0 l 1
 201 0 l 1
 201 1579 l 1
 1122 1579 l 1
 1122 1436 l 1
 395 1436 l 1
 395 879 l 1
 1061 879 l 1
 1061 762 l 1
 395 762 l 1
EndSplineSet
EndChar

StartChar: G
Encoding: 71 71 42
Width: 1522
Flags: HW
LayerCount: 2
Fore
SplineSet
1213 213 m 1
 1166.73267184 38.8171175183 966.405441153 -20 746 -20 c 0
 530.660977639 -20 381.04500791 73.8310326575 282.5 202 c 128
 175.76292534 340.823679926 115 542.006611422 115 786 c 256
 115 1180.39895788 238.05755041 1445.43263426 512 1557.5 c 128
 598.638940517 1592.94320294 698.95570079 1610 809 1610 c 0
 963.168818129 1610 1101.39833699 1567.5187878 1196.5 1511.5 c 128
 1225.6947314 1494.30310342 1236.6073333 1485.59511113 1251 1476 c 1
 1185 1341 l 2
 1184.33333333 1341 1175.5 1347.16666667 1158.5 1359.5 c 128
 1078.91940233 1417.23494341 949.632407658 1458 807 1458 c 0
 419.247206872 1458 316 1170.54848318 316 782 c 0
 316 403.136706699 418.540654043 137.23719365 793 132 c 1
 955.867447366 132 1086.56047157 177.453719944 1142.5 283 c 128
 1160.16666667 316.333333333 1169 355 1169 399 c 2
 1169 684 l 1
 767 684 l 1
 767 811 l 1
 1354 811 l 1
 1354 0 l 1
 1266 0 l 1
 1213 213 l 1
EndSplineSet
EndChar

StartChar: H
Encoding: 72 72 43
Width: 1622
Flags: HW
LayerCount: 2
Fore
SplineSet
1227 0 m 1
 1227 764 l 1
 395 764 l 1
 395 0 l 1
 201 0 l 1
 201 1579 l 1
 395 1579 l 1
 395 879 l 1
 1227 879 l 1
 1227 1579 l 1
 1421 1579 l 1
 1421 0 l 1
 1227 0 l 1
EndSplineSet
EndChar

StartChar: I
Encoding: 73 73 44
Width: 995
Flags: HW
LayerCount: 2
Fore
SplineSet
201 112 m 1
 405 112 l 1
 405 1461 l 1
 201 1461 l 1
 201 1579 l 1
 794 1579 l 1
 794 1461 l 1
 599 1461 l 1
 599 112 l 1
 794 112 l 1
 794 0 l 1
 201 0 l 1
 201 112 l 1
EndSplineSet
EndChar

StartChar: J
Encoding: 74 74 45
Width: 615
Flags: HW
LayerCount: 2
Fore
SplineSet
-55 -280 m 1
 -106 -155 l 1
 46.4633845852 -131.841004873 162.278897081 -89.0238602149 200 43 c 0
 213.333333333 89 220 171 220 289 c 2
 220 1579 l 1
 414 1579 l 1
 414 324 l 2
 414 150.588716389 404.30688317 13.6346452646 341 -91.5 c 128
 267.191333492 -214.075106879 150.906617993 -280 -55 -280 c 1
EndSplineSet
EndChar

StartChar: K
Encoding: 75 75 46
Width: 1325
Flags: HW
LayerCount: 2
Fore
SplineSet
395 733 m 1
 395 0 l 1
 201 0 l 1
 201 1579 l 1
 395 1579 l 1
 395 854 l 1
 628 854 l 1
 1098 1579 l 1
 1301 1579 l 1
 772 798 l 1
 1368 0 l 1
 1155 0 l 1
 620 733 l 1
 395 733 l 1
EndSplineSet
EndChar

StartChar: L
Encoding: 76 76 47
Width: 1152
Flags: HW
LayerCount: 2
Fore
SplineSet
1141 0 m 1
 201 0 l 1
 201 1579 l 1
 395 1579 l 1
 395 143 l 1
 1141 143 l 1
 1141 0 l 1
EndSplineSet
EndChar

StartChar: M
Encoding: 77 77 48
Width: 1968
Flags: HW
LayerCount: 2
Fore
SplineSet
886 100 m 1
 383 1459 l 1
 373 0 l 1
 201 0 l 1
 218 1579 l 1
 509 1579 l 1
 984 248 l 1
 1459 1579 l 1
 1750 1579 l 1
 1768 0 l 1
 1595 0 l 1
 1585 1459 l 1
 1082 100 l 1
 886 100 l 1
EndSplineSet
EndChar

StartChar: N
Encoding: 78 78 49
Width: 1655
Flags: HW
LayerCount: 2
Fore
SplineSet
1282 175 m 1
 1282 1579 l 1
 1454 1579 l 1
 1454 0 l 1
 1202 0 l 1
 373 1404 l 1
 373 0 l 1
 201 0 l 1
 201 1579 l 1
 453 1579 l 1
 1282 175 l 1
EndSplineSet
EndChar

StartChar: O
Encoding: 79 79 50
Width: 1550
Flags: HW
LayerCount: 2
Fore
SplineSet
315 795 m 0
 315 510.289524986 374.979944138 285.525856699 553.5 185 c 128
 614.18259107 150.829220563 687.073311393 132 775 132 c 256
 1133.86673227 132 1235 430.06726738 1235 795 c 0
 1235 1080.68086635 1175.47220969 1305.21953241 996.5 1406 c 128
 935.268987994 1440.47959899 863.95702782 1458 775 1458 c 256
 414.782367063 1458 315 1161.27781932 315 795 c 0
775 -20 m 256
 406.815236693 -20 220.142245558 182.079621508 146.5 486 c 128
 125.5 572.666666667 115 675.666666667 115 795 c 256
 115 1178.71974295 228.685197614 1446.73117178 492.5 1558 c 128
 575.073070145 1592.82673707 669.51836146 1610 775 1610 c 256
 1143.18476331 1610 1329.85775444 1407.92037849 1403.5 1104 c 128
 1424.5 1017.33333333 1435 914.333333333 1435 795 c 256
 1435 411.28025705 1321.31480239 143.268828217 1057.5 32 c 128
 974.926929855 -2.82673706815 880.48163854 -20 775 -20 c 256
EndSplineSet
EndChar

StartChar: P
Encoding: 80 80 51
Width: 1368
Flags: HW
LayerCount: 2
Fore
SplineSet
565 784 m 2
 755.104097053 784 907.702572037 799.089261313 1011.5 866 c 128
 1082.60484888 911.836183575 1116 977.312362791 1116 1084 c 0
 1116 1253.2635726 1079.10093238 1345.31646761 953.5 1392 c 128
 861.452397621 1426.21238319 747.560944959 1436 610 1436 c 2
 395 1436 l 1
 395 784 l 1
 565 784 l 2
1298 1108 m 0
 1298 717.773295183 970.723041311 639 565 639 c 2
 395 639 l 1
 395 0 l 1
 201 0 l 1
 201 1579 l 1
 598 1579 l 2
 834.879013939 1579 1024.8356526 1553.83473909 1151.5 1461 c 128
 1252.78763982 1386.76433851 1298 1276.60847833 1298 1108 c 0
EndSplineSet
EndChar

StartChar: Q
Encoding: 81 81 52
Width: 1550
Flags: HW
LayerCount: 2
Fore
SplineSet
672 -64 m 1
 672 -52 672 -52 672 -41.5 c 128
 672 -34.5 672.333333333 -27.6666666667 673 -21 c 1
 276.497239008 23.7664407571 115 344.737938074 115 792 c 0
 115 1175.37796021 228.876045103 1445.81166528 492.5 1557 c 128
 574.983678547 1591.78903449 669.686233935 1610 775 1610 c 256
 1143.13249803 1610 1329.85984535 1404.91174937 1403.5 1101 c 128
 1424.5 1014.33333333 1435 911.333333333 1435 792 c 0
 1435 442.943546333 1340.85537465 189.390103958 1126 61.5 c 128
 1052.32676577 17.6468843869 967.369922273 -10.0066216789 870 -21 c 1
 1004.99970972 -121.000290283 1146.45975534 -214.540244664 1284 -312 c 1
 1165 -443 l 1
 672 -64 l 1
1235 792 m 0
 1235 1168.82908065 1151.83956114 1458 775 1458 c 256
 398.160604551 1458 315 1168.82979325 315 792 c 256
 315 415.080361947 397.962616467 125 775 125 c 0
 1151.82714276 125 1235 415.535616433 1235 792 c 0
EndSplineSet
EndChar

StartChar: R
Encoding: 82 82 53
Width: 1353
Flags: HW
LayerCount: 2
Fore
SplineSet
881 797 m 1
 1127.99005208 768.990818836 1292 671.059786105 1292 397 c 2
 1292 0 l 1
 1110 0 l 1
 1110 412 l 2
 1110 608.33378388 1012.56204123 681.082513972 840.5 713.5 c 128
 771.5 726.5 683 733 575 733 c 2
 395 733 l 1
 395 0 l 1
 201 0 l 1
 201 1579 l 1
 647 1579 l 2
 874.726131922 1579 1082.67691037 1560.80271797 1195.5 1445.5 c 128
 1258.08472252 1381.53978907 1294 1288.6946239 1294 1160 c 0
 1294 980.667176575 1185.47655052 872.12982716 1050 824 c 128
 999.333333333 806 943 797 881 797 c 1
395 862 m 1
 475.333333333 862 555.666666667 862 636 862 c 1
 723 865 l 1
 946.775113182 877.431950732 1112.92727888 935.777397415 1124 1160 c 1
 1117.88574756 1341.38948909 1043.54360365 1408.54514658 872.5 1426.5 c 128
 812.166666667 1432.83333333 737 1436 647 1436 c 2
 395 1436 l 1
 395 862 l 1
EndSplineSet
EndChar

StartChar: S
Encoding: 83 83 54
Width: 1343
Flags: HW
LayerCount: 2
Fore
SplineSet
696 1458 m 0
 482.023807116 1458 318 1413.60505834 318 1208 c 0
 318 1053.5082127 437.240234539 1013.01469346 558 974 c 2
 841 882 l 2
 1050.0375172 814.901537689 1229 701.210423489 1229 426 c 0
 1229 176.622223043 1077.45793955 48.9872886937 870.5 0.5 c 128
 812.166666667 -13.1666666667 744 -20 666 -20 c 0
 526.823274189 -20 398.406150692 6.05634362653 294 42.5 c 128
 258.666666667 54.8333333333 228.666666667 68 204 82 c 1
 224 242 l 1
 343.2628352 180.914157581 458.510783901 132 644 132 c 0
 873.738943361 132 1045 187.595943373 1045 416 c 0
 1045 596.319671299 919.39771653 657.610799214 784 705 c 2
 493 807 l 2
 374.295857081 848.895579854 277.060526602 901.851870282 211.5 984 c 128
 163.035928227 1044.72606584 135 1117.02611958 135 1217 c 0
 135 1500.14362075 374.841912837 1610 654 1610 c 0
 826 1610 983.666666667 1568 1127 1484 c 1
 1097 1337 l 1
 1019.56972091 1386.27381397 917.342513588 1426.36925827 809.5 1447 c 128
 771.166666667 1454.33333333 733.333333333 1458 696 1458 c 0
EndSplineSet
EndChar

StartChar: T
Encoding: 84 84 55
Width: 1096
Flags: HW
LayerCount: 2
Fore
SplineSet
1102 1436 m 1
 646 1436 l 1
 646 0 l 1
 452 0 l 1
 452 1436 l 1
 -6 1436 l 1
 -6 1579 l 1
 1102 1579 l 1
 1102 1436 l 1
EndSplineSet
EndChar

StartChar: U
Encoding: 85 85 56
Width: 1608
Flags: HW
LayerCount: 2
Fore
SplineSet
1430 736 m 2
 1430 269.637224181 1268.19256266 -20 804 -20 c 256
 339.812668222 -20 178 269.642553638 178 736 c 2
 178 1579 l 1
 372 1579 l 1
 372 732 l 2
 372 425.816181843 428.154448677 180.372742095 688.5 140.5 c 128
 725.5 134.833333333 764 132 804 132 c 256
 1078.03395058 132 1181.32050775 266.867628137 1220.5 507 c 128
 1230.83333333 570.333333333 1236 645.333333333 1236 732 c 2
 1236 1579 l 1
 1430 1579 l 1
 1430 736 l 2
EndSplineSet
EndChar

StartChar: V
Encoding: 86 86 57
Width: 1267
Flags: HW
LayerCount: 2
Fore
SplineSet
512 0 m 1
 16 1579 l 1
 200 1579 l 1
 634 180 l 1
 1068 1579 l 1
 1250 1579 l 1
 756 0 l 1
 512 0 l 1
EndSplineSet
EndChar

StartChar: W
Encoding: 87 87 58
Width: 1978
Flags: HW
LayerCount: 2
Fore
SplineSet
1126 1489 m 1
 1420 135 l 1
 1730 1579 l 1
 1911 1579 l 1
 1575 0 l 1
 1288 0 l 1
 1052 1067 l 1
 989 1373 l 1
 893.608256088 911.058410579 789.622712273 457.71062106 690 0 c 1
 404 0 l 1
 68 1579 l 1
 248 1579 l 1
 558 135 l 1
 852 1489 l 1
 1126 1489 l 1
EndSplineSet
EndChar

StartChar: X
Encoding: 88 88 59
Width: 1337
Flags: HW
LayerCount: 2
Fore
SplineSet
667 645 m 1
 536.667842721 430.998823946 408.50996425 214.823369083 279 0 c 1
 61 0 l 1
 558 809 l 1
 63 1579 l 1
 259 1579 l 1
 667 942 l 1
 1075 1579 l 1
 1271 1579 l 1
 776 809 l 1
 1273 0 l 1
 1055 0 l 1
 667 645 l 1
EndSplineSet
EndChar

StartChar: Y
Encoding: 89 89 60
Width: 1210
Flags: HW
LayerCount: 2
Fore
SplineSet
608 669 m 1
 743.948414697 974.71825197 884.921674478 1275.41165886 1023 1579 c 1
 1214 1579 l 1
 700 485 l 1
 700 0 l 1
 510 0 l 1
 510 485 l 1
 -4 1579 l 1
 193 1579 l 1
 331.138077687 1275.47141102 471.770532277 974.437198943 608 669 c 1
EndSplineSet
EndChar

StartChar: Z
Encoding: 90 90 61
Width: 1216
Flags: HW
LayerCount: 2
Fore
SplineSet
1122 1579 m 1
 1122 1419 l 1
 289 143 l 1
 1124 143 l 1
 1124 0 l 1
 92 0 l 1
 92 180 l 1
 921 1447 l 1
 92 1447 l 1
 92 1579 l 1
 1122 1579 l 1
EndSplineSet
EndChar

StartChar: bracketleft
Encoding: 91 91 62
Width: 1039
Flags: HW
LayerCount: 2
Fore
SplineSet
176 1579 m 1
 840 1579 l 1
 840 1436 l 1
 369 1436 l 1
 369 143 l 1
 840 143 l 1
 840 0 l 1
 176 0 l 1
 176 1579 l 1
EndSplineSet
EndChar

StartChar: backslash
Encoding: 92 92 63
Width: 781
Flags: HW
LayerCount: 2
Fore
SplineSet
158 1731 m 1
 781 -114 l 1
 621 -172 l 1
 0 1679 l 1
 158 1731 l 1
EndSplineSet
EndChar

StartChar: bracketright
Encoding: 93 93 64
Width: 1039
Flags: HW
LayerCount: 2
Fore
SplineSet
199 1579 m 1
 863 1579 l 1
 863 0 l 1
 199 0 l 1
 199 143 l 1
 670 143 l 1
 670 1436 l 1
 199 1436 l 1
 199 1579 l 1
EndSplineSet
EndChar

StartChar: asciicircum
Encoding: 94 94 65
Width: 1114
Flags: HW
LayerCount: 2
Fore
SplineSet
345 432 m 1
 217 510 l 1
 509 1011 l 1
 605 1011 l 1
 897 510 l 1
 769 432 l 1
 557 809 l 1
 345 432 l 1
EndSplineSet
EndChar

StartChar: underscore
Encoding: 95 95 66
Width: 900
Flags: HW
LayerCount: 2
Fore
SplineSet
920 -111 m 1
 -20 -111 l 1
 -20 33 l 1
 920 33 l 1
 920 -111 l 1
EndSplineSet
EndChar

StartChar: grave
Encoding: 96 96 67
Width: 940
Flags: HW
LayerCount: 2
Fore
SplineSet
565 1498 m 1
 498 1472 l 1
 170 2027 l 1
 412 2116 l 1
 565 1498 l 1
EndSplineSet
EndChar

StartChar: a
Encoding: 97 97 68
Width: 1274
Flags: HW
LayerCount: 2
Fore
SplineSet
314 350 m 0
 314 180.910061229 392.808823636 119 562 119 c 0
 712.273019416 119 810.684884431 183.684884431 898 271 c 1
 898 569 l 1
 810.666666667 583 723.333333333 590 636 590 c 0
 439.480655045 590 314 540.489585471 314 350 c 0
515 -20 m 0
 272.912557603 -20 123 99.5806919027 123 339 c 2
 123 343 l 2
 123 597.453466702 311.491542683 715 567 715 c 0
 655.721884503 715 754.890818861 699.223120712 831.5 683 c 128
 859.833333333 677 882 671 898 665 c 1
 898 713 l 2
 898 871.20337303 878.998074102 985.841877455 766.5 1030 c 128
 730.833333333 1044 684 1051 626 1051 c 0
 497.217599851 1051 372.93724889 1001.96234933 293 954 c 128
 273 942 263 935.666666667 263 935 c 2
 196 1057 l 1
 304.329257938 1120.19206713 438.785474566 1190 616 1190 c 0
 869.74256197 1190 1017.94788428 1121.88902706 1065.5 919 c 128
 1080.5 855 1088 777.333333333 1088 686 c 2
 1088 0 l 1
 948 0 l 1
 920 178 l 1
 832.546903631 57.0032502292 710.069842897 -20 515 -20 c 0
EndSplineSet
EndChar

StartChar: b
Encoding: 98 98 69
Width: 1312
Flags: HW
LayerCount: 2
Fore
SplineSet
724 -20 m 0
 595.988171136 -20 501.762803414 39.1816645082 430.5 101 c 128
 402.833333333 125 377.333333333 150.666666667 354 178 c 1
 326 0 l 1
 186 0 l 1
 186 1579 l 1
 376 1614 l 1
 376 1030 l 1
 441.591791922 1095.59179192 536.111784552 1153.52794614 642 1180 c 128
 668.666666667 1186.66666667 696 1190 724 1190 c 0
 976.251420162 1190 1101.07263259 1038.11911554 1161.5 847 c 128
 1186.41946947 768.184933779 1200 675.806128911 1200 580 c 0
 1200 320.156312171 1112.37197121 123.851917798 942.5 30 c 128
 882.166666667 -3.33333333333 809.333333333 -20 724 -20 c 0
376 273 m 1
 464.870577492 188.629198584 576.745857158 119 733 119 c 0
 968.027897552 119 1018 350.219576067 1018 584 c 0
 1018 839.516213132 958.349048829 1051 731 1051 c 0
 613.897459835 1051 512.626738729 999.134055872 439.5 951 c 128
 413.166666667 933.666666667 392 917.333333333 376 902 c 1
 376 273 l 1
EndSplineSet
EndChar

StartChar: c
Encoding: 99 99 70
Width: 1139
Flags: HW
LayerCount: 2
Fore
SplineSet
641 1051 m 0
 391.095497623 1051 303 852.479897962 303 580 c 0
 303 421.849350329 333.194524598 300.988537994 400 219 c 128
 450.609148585 156.888772191 523.307818345 119 626 119 c 0
 775.299624288 119 876.747075651 165.524373708 955 245 c 1
 1012 111 l 1
 905.075966694 34.7881890266 785.566488852 -20 621 -20 c 0
 347.67014197 -20 193.649165319 144.983037162 136.5 367.5 c 128
 120.833333333 428.5 113 499.333333333 113 580 c 256
 113 860.957105091 213.225691623 1048.83551362 399.5 1139.5 c 128
 463.12002191 1170.46549739 538.770499665 1190 624 1190 c 0
 758 1190 887.333333333 1145.66666667 1012 1057 c 1
 955 924 l 1
 876.44222406 992.005238874 777.232989365 1051 641 1051 c 0
EndSplineSet
EndChar

StartChar: d
Encoding: 100 100 71
Width: 1316
Flags: HW
LayerCount: 2
Fore
SplineSet
113 584 m 0
 113 845.537317805 205.654514574 1046.82940991 374.5 1141.5 c 128
 432.166666667 1173.83333333 499 1190 575 1190 c 0
 701.215121548 1190 805.975553347 1141.72918297 879 1086 c 128
 904.333333333 1066.66666667 924.666666667 1047.33333333 940 1028 c 1
 940 1579 l 1
 1130 1614 l 1
 1130 0 l 1
 989 0 l 1
 961 179 l 1
 900.245693301 99.3909084632 810.374477303 31.1201153615 704 -3 c 128
 668.666666667 -14.3333333333 633 -20 597 -20 c 0
 333.165401371 -20 193.698613469 141.672793641 140.5 353.5 c 128
 122.166666667 426.5 113 503.333333333 113 584 c 0
302 587 m 0
 302 323.699429166 369.238236975 119 608 119 c 0
 755.549872173 119 868.363743182 197.394055114 940 275 c 1
 940 903 l 1
 880.666666667 951 823.166666667 987.666666667 767.5 1013 c 128
 711.833333333 1038.33333333 658 1051 606 1051 c 0
 363.410972823 1051 302 835.372241779 302 587 c 0
EndSplineSet
EndChar

StartChar: e
Encoding: 101 101 72
Width: 1152
Flags: HW
LayerCount: 2
Fore
SplineSet
901 717 m 2
 901 921.908316691 823.636324189 1051 629 1051 c 0
 409.175922928 1051 322.431734036 893.964941415 304 682 c 1
 901 682 l 1
 901 717 l 2
1080 676 m 0
 1080 638.209945451 1076.70457635 603.460466736 1072 567 c 1
 304 567 l 1
 309.163757463 308.812126851 386.643840631 119 649 119 c 0
 761.666666667 119 863.666666667 158 955 236 c 1
 1017 119 l 1
 943.511867407 57.1152567641 833.924902656 11.3080611427 723.5 -11 c 128
 690.5 -17.6666666667 661.666666667 -21 637 -21 c 0
 368.264704555 -21 212.054589868 120.302623903 147.5 328 c 128
 124.5 402 113 485.333333333 113 578 c 0
 113 861.806721537 225.360528148 1065.01165492 422.5 1149.5 c 128
 485.5 1176.5 554 1190 628 1190 c 0
 860.544047331 1190 994.592153974 1065.59462541 1050.5 886.5 c 128
 1070.16666667 823.5 1080 753.333333333 1080 676 c 0
EndSplineSet
EndChar

StartChar: f
Encoding: 102 102 73
Width: 854
Flags: HW
LayerCount: 2
Fore
SplineSet
597 1516 m 0
 502.788007947 1516 456.020011003 1496.09755364 440 1418 c 128
 434.666666667 1392 432 1358 432 1316 c 0
 432 1267 432 1218 432 1169 c 1
 780 1169 l 1
 780 1064 l 1
 432 1064 l 1
 432 0 l 1
 242 0 l 1
 242 1064 l 1
 47 1064 l 1
 47 1169 l 1
 242 1169 l 1
 242 1198 l 2
 242 1414.97447518 281.044286504 1589.6453047 437 1639.5 c 128
 477.666666667 1652.5 523 1659 573 1659 c 0
 658.714894089 1659 743.746021018 1619.89569927 794 1584 c 128
 808 1574 815 1568.33333333 815 1567 c 2
 752 1442 l 1
 696.666666667 1491.33333333 645 1516 597 1516 c 0
EndSplineSet
EndChar

StartChar: g
Encoding: 103 103 74
Width: 1199
Flags: HW
LayerCount: 2
Fore
SplineSet
580 1190 m 0
 687.14010517 1190 771.295322915 1150.96374167 830 1104 c 1
 897.156119922 1133.84716441 959.619709902 1156.67050161 1036 1176.5 c 128
 1070.66666667 1185.5 1102 1190 1130 1190 c 1
 1130 1020 l 1
 930 1020 l 1
 959.799769991 967.412170604 990 900.218376022 990 820 c 0
 990 646.080362038 884.588347917 542.731463419 752 496.5 c 128
 701.333333333 478.833333333 644 470 580 470 c 0
 465.988571965 470 330 481.32962457 330 370 c 0
 330 327.335033898 341.597805148 269 380 269 c 2
 588 269 l 2
 851.441579445 269 1080 228.710802558 1080 -30 c 0
 1080 -228.456299071 939.402504972 -321.232772324 773 -358.5 c 128
 709 -372.833333333 638 -380 560 -380 c 0
 318.005460282 -380 130 -321.360780246 130 -80 c 0
 130 -2.59123849932 171.5761234 55.2953275138 210 95 c 0
 233.333333333 119 260.333333333 140 291 158 c 1
 222.317815506 179.315160705 167 236.953314529 167 325 c 0
 167 433.159434676 245.406621421 491.80220714 330 520 c 1
 239.428776944 569.970329962 163.412081009 640.678596356 133 750.5 c 128
 127 772.166666667 124 795.333333333 124 820 c 0
 124 1004.39292331 237.095201967 1111.3661808 379.5 1160.5 c 128
 436.5 1180.16666667 503.333333333 1190 580 1190 c 0
295 -36 m 0
 295 -203.355831306 410.218024754 -236 580 -236 c 0
 717.061643415 -236 832.840572486 -199.565955213 880 -113.5 c 128
 893.333333333 -89.1666666667 900 -63.3333333333 900 -36 c 0
 900 129.884635101 748.291244919 127 580 127 c 2
 430 127 l 1
 382.448988828 103.224494414 344.586694622 74.5658945689 315.5 32 c 128
 301.833333333 12 295 -10.6666666667 295 -36 c 0
580 1051 m 0
 409.418706353 1051 284 1009.16417047 284 840 c 0
 284 749.087729517 325.615928644 690.691827667 374 648 c 0
 400.666666667 624.666666667 431 605.333333333 465 590 c 1
 661.879735377 590 820 626.347660804 820 820 c 0
 820 980.261857067 741.934090135 1051 580 1051 c 0
EndSplineSet
EndChar

StartChar: h
Encoding: 104 104 75
Width: 1347
Flags: HW
LayerCount: 2
Fore
SplineSet
771 1190 m 0
 1058.75692769 1190 1173 1020.46831712 1173 727 c 2
 1173 0 l 1
 983 0 l 1
 983 727 l 2
 983 905.336793899 943.731261933 1051 771 1051 c 0
 630.366259464 1051 508.98590258 991.69222489 428 931.5 c 128
 403.333333333 913.166666667 386 898.666666667 376 888 c 1
 376 0 l 1
 186 0 l 1
 186 1579 l 1
 376 1616 l 1
 376 1009 l 1
 474.669549643 1097.28328126 586.321182934 1190 771 1190 c 0
EndSplineSet
EndChar

StartChar: i
Encoding: 105 105 76
Width: 605
Flags: HW
LayerCount: 2
Fore
SplineSet
395 0 m 1
 205 0 l 1
 205 1169 l 1
 395 1169 l 1
 395 0 l 1
193 1462 m 256
 193 1528.00524416 238.795266462 1577 305 1577 c 0
 368.687372009 1577 413 1525.50326359 413 1462 c 256
 413 1398.49499432 368.686271739 1347 305 1347 c 0
 238.185359666 1347 193 1395.52699946 193 1462 c 256
EndSplineSet
EndChar

StartChar: j
Encoding: 106 106 77
Width: 545
Flags: HW
LayerCount: 2
Fore
SplineSet
-37 -258 m 1
 68.2131807472 -190.475122804 136.873058786 -106.669985858 147 46.5 c 128
 149.666666667 86.8333333333 151 130 151 176 c 2
 151 1169 l 1
 341 1169 l 1
 341 154 l 2
 341 -64.8800279008 264.705954852 -228.050930851 136 -316 c 128
 96 -343.333333333 54 -362.333333333 10 -373 c 1
 -37 -258 l 1
133 1462 m 256
 133 1528.00524416 178.795266462 1577 245 1577 c 0
 308.687372009 1577 353 1525.50326359 353 1462 c 256
 353 1398.49499432 308.686271739 1347 245 1347 c 0
 178.185359666 1347 133 1395.52699946 133 1462 c 256
EndSplineSet
EndChar

StartChar: k
Encoding: 107 107 78
Width: 1199
Flags: HW
LayerCount: 2
Fore
SplineSet
1160 1169 m 1
 607 648 l 1
 1193 0 l 1
 972 0 l 1
 492 555 l 1
 376 459 l 1
 376 0 l 1
 186 0 l 1
 186 1579 l 1
 376 1614 l 1
 376 627 l 1
 935 1169 l 1
 1160 1169 l 1
EndSplineSet
EndChar

StartChar: l
Encoding: 108 108 79
Width: 575
Flags: HW
LayerCount: 2
Fore
SplineSet
193 0 m 1
 193 1579 l 1
 383 1614 l 1
 383 0 l 1
 193 0 l 1
EndSplineSet
EndChar

StartChar: m
Encoding: 109 109 80
Width: 2018
Flags: HW
LayerCount: 2
Fore
SplineSet
754 1190 m 0
 926.656974368 1190 1032.64796428 1096.87957622 1075 967 c 1
 1141.07059499 1063.27429556 1244.18320794 1141.03144826 1370.5 1174.5 c 128
 1409.5 1184.83333333 1448.66666667 1190 1488 1190 c 0
 1731.1511266 1190 1844 1010.22167825 1844 766 c 2
 1844 0 l 1
 1654 0 l 1
 1654 768 l 2
 1654 932.715468113 1618.93820335 1051 1460 1051 c 0
 1399.33333333 1051 1340.16666667 1034.66666667 1282.5 1002 c 128
 1224.83333333 969.333333333 1165.66666667 921.333333333 1105 858 c 1
 1105 0 l 1
 915 0 l 1
 915 768 l 2
 915 932.967266719 882.618108612 1051 723 1051 c 0
 671.666666667 1051 616.666666667 1034.83333333 558 1002.5 c 128
 499.333333333 970.166666667 438.666666667 922.666666667 376 860 c 1
 376 0 l 1
 186 0 l 1
 186 1169 l 1
 327 1169 l 1
 354 963 l 1
 414.624666281 1059.99946605 510.051732657 1136.77992137 631.5 1172.5 c 128
 671.166666667 1184.16666667 712 1190 754 1190 c 0
EndSplineSet
EndChar

StartChar: n
Encoding: 110 110 81
Width: 1344
Flags: HW
LayerCount: 2
Fore
SplineSet
980 727 m 2
 980 907.185600647 935.353465089 1051 756 1051 c 0
 671.344025256 1051 597.683200612 1016.00381401 537.5 985.5 c 128
 478.84683223 955.771682089 419.864448469 920.731273578 376 880 c 1
 376 0 l 1
 186 0 l 1
 186 1169 l 1
 326 1169 l 1
 350 982 l 1
 419.41638241 1069.92741772 544.5539477 1137.13803034 669 1171.5 c 128
 713.666666667 1183.83333333 757 1190 799 1190 c 0
 1064.39207191 1190 1170 996.499666868 1170 727 c 2
 1170 0 l 1
 980 0 l 1
 980 727 l 2
EndSplineSet
EndChar

StartChar: o
Encoding: 111 111 82
Width: 1285
Flags: HW
LayerCount: 2
Fore
SplineSet
643 -20 m 256
 367.846534791 -20 208.580713457 135.496046762 145.5 349 c 128
 123.833333333 422.333333333 113 501 113 585 c 256
 113 859.194256547 221.394956068 1052.70110968 409.5 1142.5 c 128
 475.833333333 1174.16666667 553.666666667 1190 643 1190 c 256
 918.153465209 1190 1077.41928654 1034.50395324 1140.5 821 c 128
 1162.16666667 747.666666667 1173 669 1173 585 c 256
 1173 310.805743453 1064.60504393 117.298890319 876.5 27.5 c 128
 810.166666667 -4.16666666667 732.333333333 -20 643 -20 c 256
643 119 m 256
 894.440307766 119 983 335.88696658 983 585 c 256
 983 798.293296485 915.275874367 972.129812742 760 1031.5 c 128
 726 1044.5 687 1051 643 1051 c 256
 391.559692234 1051 303 834.11303342 303 585 c 256
 303 371.706703515 370.724125633 197.870187258 526 138.5 c 128
 560 125.5 599 119 643 119 c 256
EndSplineSet
EndChar

StartChar: p
Encoding: 112 112 83
Width: 1316
Flags: HW
LayerCount: 2
Fore
SplineSet
735 -20 m 0
 611.343558213 -20 516.690505499 34.1342016449 447 92.5 c 128
 420.333333333 114.833333333 396.666666667 138.666666667 376 164 c 1
 376 -465 l 1
 186 -487 l 1
 186 1169 l 1
 327 1169 l 1
 360 991 l 1
 425.666299271 1070.59551427 514.179736399 1140.54482608 625 1174 c 128
 660.333333333 1184.66666667 696.666666667 1190 734 1190 c 0
 982.890605623 1190 1106.80404154 1039.86329605 1166 851 c 128
 1190.57798147 772.584535322 1204 679.808842883 1204 584 c 0
 1204 326.368614371 1113.99123822 127.551109759 948 31.5 c 128
 888.666666667 -2.83333333333 817.666666667 -20 735 -20 c 0
1014 543 m 0
 1014 754.522148862 978.659691726 954.996070234 839 1028 c 128
 809.666666667 1043.33333333 775 1051 735 1051 c 0
 647.473517804 1051 565.86201306 1015.37927985 506.5 983 c 128
 458.647113717 956.898425664 405.3571985 921.803631708 376 890 c 1
 376 285 l 1
 425.71809047 228.179325177 517.624795324 174.190251411 599.5 142 c 128
 638.5 126.666666667 678 119 718 119 c 0
 816.976057396 119 886.181431451 177.0466226 930.5 241 c 128
 981.372175852 314.410481609 1014 420.302993642 1014 543 c 0
EndSplineSet
EndChar

StartChar: q
Encoding: 113 113 84
Width: 1316
Flags: HW
LayerCount: 2
Fore
SplineSet
574 1190 m 0
 708.733731622 1190 812.841854441 1122.02933528 885.5 1054.5 c 128
 913.833333333 1028.16666667 937.666666667 1000.33333333 957 971 c 1
 991 1169 l 1
 1130 1169 l 1
 1130 -479 l 1
 940 -502 l 1
 940 164 l 1
 879.887194314 87.8571127974 793.716240883 24.710603818 688.5 -5.5 c 128
 654.833333333 -15.1666666667 620 -20 584 -20 c 0
 408.129856817 -20 293.225424752 61.0944937353 221.5 169 c 128
 152.745613693 272.435802409 113 419.418595503 113 584 c 0
 113 843.136595109 195.582376329 1042.29372792 361.5 1139 c 128
 419.833333333 1173 490.666666667 1190 574 1190 c 0
303 584 m 0
 303 385.9408182 339.196617968 220.724544406 461 150 c 128
 495.245633632 130.115438536 536.05361126 119 584 119 c 0
 702.430191531 119 807.573348517 171.750832765 880.5 221 c 128
 906.166666667 238.333333333 926 254 940 268 c 1
 940 891 l 1
 872.5944457 958.4055543 769.746821309 1012.85792131 663 1039 c 128
 630.333333333 1047 600.666666667 1051 574 1051 c 0
 484 1051 416.333333333 1012 371 934 c 128
 325.666666667 856 303 739.333333333 303 584 c 0
EndSplineSet
EndChar

StartChar: r
Encoding: 114 114 85
Width: 792
Flags: HW
LayerCount: 2
Fore
SplineSet
681 1190 m 0
 720.333333333 1190 753.666666667 1186 781 1178 c 1
 781 1026 l 1
 778.333333333 1028.66666667 757.666666667 1030 719 1030 c 0
 583.848637583 1030 474.526359622 968.132460365 395.5 909.5 c 128
 385.166666667 901.833333333 378.666666667 896.666666667 376 894 c 1
 376 0 l 1
 186 0 l 1
 186 1169 l 1
 329 1169 l 1
 359 977 l 1
 467.666666667 1119 575 1190 681 1190 c 0
EndSplineSet
EndChar

StartChar: s
Encoding: 115 115 86
Width: 1043
Flags: HW
LayerCount: 2
Fore
SplineSet
519 1051 m 0
 381.670710219 1051 279 1012.85283327 279 880 c 0
 279 817.121562344 308.728262042 793.135868979 354 770.5 c 128
 374.666666667 760.166666667 401.666666667 749 435 737 c 2
 603 678 l 2
 720.874481685 636.138034542 816.335219234 593.43013877 880 516 c 128
 924.639137339 461.70915729 943 400.742036221 943 309 c 0
 943 68.1599599022 743.675269615 -21 505 -21 c 0
 386.848352401 -21 273.812563387 17.9339974927 191 57.5 c 128
 161 71.8333333333 137.666666667 86 121 100 c 1
 185 235 l 1
 249.331863639 184.314289254 338.829881461 145.998758795 433.5 127.5 c 128
 462.5 121.833333333 488.666666667 119 512 119 c 0
 655.731036796 119 771 171.171853483 771 314 c 0
 771 439.698985638 675.900658055 472.35296747 580 505 c 1
 408 566 l 1
 307.600433038 599.466522321 224.250020574 634.041642664 169 698.5 c 128
 127.415783498 747.014919253 111 804.687155622 111 891 c 0
 111 1033.03294866 206.83931023 1115.82692355 317.5 1158.5 c 128
 368.5 1178.16666667 432 1188.66666667 508 1190 c 1
 668.362464261 1190 804.271505535 1140.48156668 890 1067 c 1
 828 943 l 1
 728 1015 625 1051 519 1051 c 0
EndSplineSet
EndChar

StartChar: t
Encoding: 116 116 87
Width: 868
Flags: HW
LayerCount: 2
Fore
SplineSet
428 294 m 2
 428 198.381760819 434.395214563 119 526 119 c 0
 552 119 582.333333333 125.333333333 617 138 c 128
 651.666666667 150.666666667 696.666666667 173 752 205 c 1
 819 82 l 1
 759.413431817 46.7897551646 684.415308513 10.702721693 606.5 -9 c 128
 577.5 -16.3333333333 549.333333333 -20 522 -20 c 0
 294.614847378 -20 238 115.921380785 238 346 c 2
 238 1065 l 1
 55 1065 l 1
 55 1169 l 1
 238 1169 l 1
 266 1530 l 1
 428 1576 l 1
 428 1169 l 1
 761 1169 l 1
 761 1065 l 1
 428 1065 l 1
 428 294 l 2
EndSplineSet
EndChar

StartChar: u
Encoding: 117 117 88
Width: 1298
Flags: HW
LayerCount: 2
Fore
SplineSet
586 -20 m 0
 298.398069596 -20 174 150.409306837 174 442 c 2
 174 1169 l 1
 364 1169 l 1
 364 442 l 2
 364 257.066407509 412.992663708 119 596 119 c 0
 751.311193583 119 860.154896355 189.700890407 950 274 c 1
 950 1169 l 1
 1140 1169 l 1
 1140 0 l 1
 999 0 l 1
 972 176 l 1
 912 108.666666667 851 59.1666666667 789 27.5 c 128
 727 -4.16666666667 659.333333333 -20 586 -20 c 0
EndSplineSet
EndChar

StartChar: v
Encoding: 118 118 89
Width: 1166
Flags: HW
LayerCount: 2
Fore
SplineSet
675 0 m 1
 489 0 l 1
 61 1169 l 1
 249 1169 l 1
 585 199 l 1
 915 1169 l 1
 1105 1169 l 1
 675 0 l 1
EndSplineSet
EndChar

StartChar: w
Encoding: 119 119 90
Width: 1726
Flags: HW
LayerCount: 2
Fore
SplineSet
860 1015 m 1
 612 0 l 1
 406 0 l 1
 86 1169 l 1
 270 1169 l 1
 514 164 l 1
 762 1169 l 1
 964 1169 l 1
 1224 162 l 1
 1454 1169 l 1
 1640 1169 l 1
 1320 0 l 1
 1114 0 l 1
 860 1015 l 1
EndSplineSet
EndChar

StartChar: x
Encoding: 120 120 91
Width: 1124
Flags: HW
LayerCount: 2
Fore
SplineSet
59 1169 m 1
 275 1169 l 1
 557 702 l 1
 847 1169 l 1
 1057 1169 l 1
 651 584 l 1
 1049 0 l 1
 845 0 l 1
 563 477 l 1
 275 0 l 1
 63 0 l 1
 471 584 l 1
 59 1169 l 1
EndSplineSet
EndChar

StartChar: y
Encoding: 121 121 92
Width: 1155
Flags: HW
LayerCount: 2
Fore
SplineSet
598 249 m 1
 899 1169 l 1
 1094 1169 l 1
 657 -37 l 2
 633.316249312 -102.130314392 616.688497763 -154.786942253 594 -203 c 0
 525.137705572 -353.142379655 420.150103294 -459 223 -459 c 1
 172 -334 l 1
 272 -317.333333333 344.333333333 -285.666666667 389 -239 c 0
 433 -193 474 -105.666666667 512 23 c 1
 61 1169 l 1
 243 1169 l 1
 598 249 l 1
EndSplineSet
EndChar

StartChar: z
Encoding: 122 122 93
Width: 978
Flags: HW
LayerCount: 2
Fore
SplineSet
890 1169 m 1
 890 1004 l 1
 264 145 l 1
 890 145 l 1
 890 0 l 1
 88 0 l 1
 88 166 l 1
 726 1029 l 1
 118 1029 l 1
 118 1169 l 1
 890 1169 l 1
EndSplineSet
EndChar

StartChar: braceleft
Encoding: 123 123 94
Width: 1160
Flags: HW
LayerCount: 2
Fore
SplineSet
903 -209 m 1
 605.876041399 -209 494 -35.4495659861 494 263 c 0
 494 468.333333333 414.666666667 571 256 571 c 1
 256 759 l 1
 414.666666667 759 494 861.666666667 494 1067 c 0
 494 1365.31366573 605.648102619 1539 903 1539 c 1
 904 1370 l 1
 802.410743075 1370 729.947120164 1351.54328038 699.5 1280.5 c 128
 673.617353306 1220.10715771 664 1138.94895038 664 1042 c 0
 664 832.666666667 583.666666667 707 423 665 c 1
 583.666666667 623 664 497.333333333 664 288 c 1
 665.328571863 204.299972606 663.996540668 135.546710714 687.5 79.5 c 128
 716.492744272 10.3634559677 747.477476675 -30.3553552917 837.5 -37.5 c 128
 858.5 -39.1666666667 880.666666667 -40 904 -40 c 1
 903 -209 l 1
EndSplineSet
EndChar

StartChar: bar
Encoding: 124 124 95
Width: 698
Flags: HW
LayerCount: 2
Fore
SplineSet
260 -111 m 1
 260 1696 l 1
 438 1696 l 1
 438 -111 l 1
 260 -111 l 1
EndSplineSet
EndChar

StartChar: braceright
Encoding: 125 125 96
Width: 1160
Flags: HW
LayerCount: 2
Fore
SplineSet
257 1539 m 1
 553.177269186 1539 666 1364.63366331 666 1067 c 0
 666 861.666666667 745.333333333 759 904 759 c 1
 904 571 l 1
 745.333333333 571 666 468.333333333 666 263 c 0
 666 -34.5396950268 553.370837526 -209 257 -209 c 1
 256 -40 l 1
 358.872502723 -40 429.311825336 -24.1794934291 460 49 c 1
 486.351956194 114.879890485 494.402456803 187.354778611 496 288 c 1
 496 497.333333333 576.333333333 623 737 665 c 1
 576.333333333 707 496 832.666666667 496 1042 c 0
 496 1108.2936929 492.499701068 1164.8013153 482 1211 c 1
 456.272273406 1307.47897473 424.27798656 1361.76332081 312 1368.5 c 128
 295.333333333 1369.5 276.666666667 1370 256 1370 c 1
 257 1539 l 1
EndSplineSet
EndChar

StartChar: asciitilde
Encoding: 126 126 97
Width: 1194
Flags: HW
LayerCount: 2
Fore
SplineSet
432 509 m 0
 380.094596771 509 373 459.363205348 373 394 c 1
 217 394 l 1
 217 567.333333333 284 654 418 654 c 0
 496.481077157 654 556.647438512 620.862293855 608.5 591.5 c 128
 653.151664549 566.215322485 701.453545217 529 762 529 c 0
 801.333333333 529 821 566 821 640 c 1
 977 640 l 1
 977 528.440115564 938.11937316 445.32813287 864.5 408 c 128
 840.833333333 396 814.333333333 390 785 390 c 0
 668.109657893 390 577.177774311 451.466083559 497 490.5 c 128
 471.666666667 502.833333333 450 509 432 509 c 0
EndSplineSet
EndChar

StartChar: exclamdown
Encoding: 161 161 98
Width: 455
Flags: HW
LayerCount: 2
Fore
SplineSet
120 1393 m 1
 120 1595 l 1
 329 1595 l 1
 329 1393 l 1
 120 1393 l 1
344 0 m 1
 170 0 l 1
 170 1180 l 1
 344 1180 l 1
 344 0 l 1
EndSplineSet
EndChar

StartChar: cent
Encoding: 162 162 99
Width: 1315
Flags: HW
LayerCount: 2
Fore
SplineSet
646 -22 m 1
 390.987244462 -6.69923466772 247.40909391 154.595125068 193.5 376.5 c 128
 179.166666667 435.5 172 503.333333333 172 580 c 0
 172 848.982690094 263.522503121 1028.98883509 433.5 1124.5 c 128
 494.676538143 1158.8753881 565.827210393 1181.13992259 646 1189 c 1
 646 1329 l 1
 749 1329 l 1
 749 1186 l 1
 859.568533266 1186 967.690904176 1134.02474193 1039.5 1094 c 128
 1059.83333333 1082.66666667 1070.33333333 1077 1071 1077 c 2
 1014 944 l 2
 1013.33333333 944 1005.66666667 948.833333333 991 958.5 c 128
 934.148333897 995.970416295 843.37623078 1038 749 1038 c 1
 749 130 l 1
 844.213794171 130 932.778228676 160.521410941 993 193.5 c 128
 1014 205 l 1
 1060 68 l 2
 1060 66.6666666667 1050.16666667 61.3333333333 1030.5 52 c 128
 982.659769457 29.2961617762 917.330431324 8.73264740376 855 -6 c 128
 818.333333333 -14.6666666667 783 -19 749 -19 c 1
 749 -159 l 1
 646 -159 l 1
 646 -22 l 1
646 1037 m 1
 456.666666667 1011.66666667 362 859.333333333 362 580 c 0
 362 338.017725639 434.212747601 151.293394989 646 129 c 1
 646 1037 l 1
EndSplineSet
EndChar

StartChar: sterling
Encoding: 163 163 100
Width: 1197
Flags: HW
LayerCount: 2
Fore
SplineSet
966 1088 m 1
 878.256522572 1131.87173871 770.252776473 1180 636 1180 c 0
 457.333333333 1180 368 1106.33333333 368 959 c 0
 368 886.333333333 396.333333333 813.666666667 453 741 c 1
 484 706 l 1
 912 706 l 1
 912 603 l 1
 484 603 l 1
 484 415.714033229 442.142855362 268.59523483 378 151 c 1
 365 132 l 1
 981 132 l 1
 981 0 l 1
 184 0 l 1
 184 126 l 1
 242.454446992 196.14533639 282.59749513 301.483102951 308 416.5 c 128
 320 470.833333333 326 533 326 603 c 1
 129 603 l 1
 129 706 l 1
 302 706 l 2
 300.666666667 706 293.833333333 712.333333333 281.5 725 c 128
 250.429419488 756.910325932 222.896425851 807.069292789 203.5 857.5 c 128
 191.833333333 887.833333333 186 920.666666667 186 956 c 0
 186 1074.19534951 241.700427785 1163.04808319 307.5 1221 c 128
 371.010328776 1276.93570241 465.417403059 1322 577 1322 c 0
 723.035511314 1322 845.282439119 1296.61127576 946 1254 c 0
 964 1246 964 1246 977.5 1240 c 128
 993.081203857 1233.07502051 1004.38182487 1227.29869652 1016 1219 c 1
 966 1088 l 1
EndSplineSet
EndChar

StartChar: currency
Encoding: 164 164 101
Width: 1303
Flags: HW
LayerCount: 2
Fore
SplineSet
443 1177 m 0
 385 1117.66666667 356 1050.33333333 356 975 c 0
 356 848.424855671 436.654845184 761.705319667 526 721.5 c 128
 559.333333333 706.5 594 699 630 699 c 0
 761.85568917 699 854.647326862 789.298298925 897.5 882 c 128
 913.833333333 917.333333333 922 954 922 992 c 0
 922 1117.31239484 841.132929726 1204.78151092 752 1244 c 128
 718.666666667 1258.66666667 684 1266 648 1266 c 0
 570.666666667 1266 502.333333333 1236.33333333 443 1177 c 0
281 742 m 1
 235.666666667 810.666666667 213 885.666666667 213 967 c 0
 213 1053.66666667 238 1134 288 1208 c 1
 94 1402 l 1
 218 1526 l 1
 412 1333 l 1
 486.666666667 1383.66666667 567.666666667 1409 655 1409 c 0
 736.333333333 1409 811.333333333 1386.33333333 880 1341 c 1
 1066 1526 l 1
 1190 1402 l 1
 1003 1215 l 1
 1043.66666667 1150.33333333 1064 1078.66666667 1064 1000 c 0
 1064 912.666666667 1038.66666667 831.666666667 988 757 c 1
 1190 555 l 1
 1066 430 l 1
 863 633 l 1
 789.666666667 583 709.666666667 558 623 558 c 0
 544.333333333 558 472.333333333 578.333333333 407 619 c 1
 218 430 l 1
 94 555 l 1
 281 742 l 1
EndSplineSet
EndChar

StartChar: yen
Encoding: 165 165 102
Width: 1303
Flags: HW
LayerCount: 2
Fore
SplineSet
565 688 m 1
 82 1579 l 1
 276 1579 l 1
 696 788 l 1
 1116 1579 l 1
 1310 1579 l 1
 829 688 l 1
 1092 688 l 1
 1092 584 l 1
 796 584 l 1
 796 488 l 1
 1092 488 l 1
 1092 389 l 1
 796 389 l 1
 796 0 l 1
 606 0 l 1
 606 389 l 1
 304 389 l 1
 304 488 l 1
 606 488 l 1
 606 584 l 1
 304 584 l 1
 304 688 l 1
 565 688 l 1
EndSplineSet
EndChar

StartChar: brokenbar
Encoding: 166 166 103
Width: 474
Flags: HW
LayerCount: 2
Fore
SplineSet
144 889 m 1
 144 1579 l 1
 332 1579 l 1
 332 889 l 1
 144 889 l 1
144 0 m 1
 144 690 l 1
 332 690 l 1
 332 0 l 1
 144 0 l 1
EndSplineSet
EndChar

StartChar: section
Encoding: 167 167 104
Width: 974
Flags: HW
LayerCount: 2
Fore
SplineSet
773 1316 m 1
 697.9878784 1373.96391215 600.357883284 1424 479 1424 c 0
 325 1424 248 1374.33333333 248 1275 c 0
 248 1214.14185401 282.043132024 1191.63523232 326.5 1170.5 c 128
 346.833333333 1160.83333333 372.666666667 1150.33333333 404 1139 c 2
 559 1083 l 2
 675.973221058 1041.14719614 767.023334577 998.758887343 828 923 c 128
 866.589683937 875.055241169 880 824.027609987 880 746 c 0
 880 641.020974018 809.93031248 576.775563851 733 545 c 128
 702.333333333 532.333333333 668.333333333 524.666666667 631 522 c 1
 724.142714474 489.456160003 794.828198049 447.42913502 839.5 380 c 128
 869.089398583 335.336756856 882 284.594686382 882 219 c 0
 882 -9.48710726668 691.029303809 -96 466 -96 c 0
 354.65789026 -96 245.698052406 -57.2190605722 167.5 -19.5 c 128
 139.166666667 -5.83333333333 117.333333333 7.33333333333 102 20 c 1
 163 158 l 1
 218.049171064 108.64557077 297.687915237 74.2166398888 383.5 57.5 c 128
 409.166666667 52.5 432.666666667 50 454 50 c 0
 589.63477892 50 713 88.4938876278 713 223 c 0
 713 341.316254046 622.285954432 374.904681856 532 405 c 2
 372 459 l 2
 213.447379461 512.465418554 92 567.688884713 92 771 c 0
 92 867.621381918 152.185446069 926.592723034 222 961.5 c 128
 254.666666667 977.833333333 296.333333333 989 347 995 c 1
 257.366464062 1029.30419277 187.238413011 1064.3405835 139 1125.5 c 128
 105.550746385 1167.90887512 92 1215.132166 92 1285 c 0
 92 1419.3810179 184.245608147 1499.51723906 288.5 1540.5 c 128
 336.833333333 1559.5 397 1569 469 1569 c 0
 583.923073324 1569 693.967333556 1528.25110277 772.5 1488.5 c 128
 799.5 1474.83333333 819 1462.66666667 831 1452 c 1
 773 1316 l 1
481 906 m 0
 343.664594935 906 246 873.648601979 246 753 c 0
 246 651 324.333333333 600 481 600 c 0
 610.591792392 600 720 635.433847605 720 751 c 0
 720 879.906380542 607.636484059 906 481 906 c 0
EndSplineSet
EndChar

StartChar: dieresis
Encoding: 168 168 105
Width: 1140
Flags: HW
LayerCount: 2
Fore
SplineSet
215 1473 m 256
 215 1539.00524416 260.795266462 1588 327 1588 c 0
 390.687372009 1588 435 1536.50326359 435 1473 c 256
 435 1409.49499432 390.686271739 1358 327 1358 c 0
 260.185359666 1358 215 1406.52699946 215 1473 c 256
705 1473 m 256
 705 1539.00524416 750.795266462 1588 817 1588 c 0
 880.687372009 1588 925 1536.50326359 925 1473 c 256
 925 1409.49499432 880.686271739 1358 817 1358 c 0
 750.185359666 1358 705 1406.52699946 705 1473 c 256
EndSplineSet
EndChar

StartChar: copyright
Encoding: 169 169 106
Width: 2316
Flags: HW
LayerCount: 2
Fore
SplineSet
673 831 m 256
 673 1163.33349791 853.616756852 1326 1195 1326 c 0
 1279.66666667 1326 1373 1300 1475 1248 c 1
 1475 1122 l 1
 1374.33333333 1172.66666667 1276.33333333 1198 1181 1198 c 0
 1002.06016716 1198 898.362294484 1147.24292597 856.5 1009 c 128
 842.166666667 961.666666667 835 902.333333333 835 831 c 256
 835 642.918041539 883.633671944 519.018885799 1029 481 c 128
 1072.33333333 469.666666667 1123 464 1181 464 c 0
 1276.33333333 464 1374.33333333 489.333333333 1475 540 c 1
 1475 414 l 1
 1373 362 1279.66666667 336 1195 336 c 0
 853.601111099 336 673 498.636824076 673 831 c 256
283 830 m 256
 283 1115.97066928 406.835723361 1316.35332443 561 1454 c 128
 665.375822356 1547.19269853 793.507127288 1621.4121928 945 1660 c 128
 1015.66666667 1678 1086.66666667 1687 1158 1687 c 256
 1416.44843628 1687 1614.94741151 1580.14304356 1756.5 1453 c 128
 1864.97273853 1355.56939653 1950.26191592 1229.48975958 1998 1074 c 128
 2021.33333333 998 2033 916.666666667 2033 830 c 0
 2030.80347671 548.845018383 1915.43853586 350.013529973 1765 211.5 c 128
 1621.91575714 79.757800784 1423.41836049 -23 1158 -23 c 0
 896.340821964 -23 695.817981772 78.9825497937 553.5 207.5 c 128
 446.35269221 304.257265823 363.383751422 430.660123928 317 585.5 c 128
 294.333333333 661.166666667 283 742.666666667 283 830 c 256
431 829 m 0
 431 607.146510913 516.525302601 432.086467998 631.5 313.5 c 128
 749.53999598 191.75194132 926.708925394 101 1158 101 c 256
 1389.1934162 101 1566.540371 191.834832911 1684.5 313.5 c 128
 1799.57698545 432.191969281 1885 606.992123249 1885 829 c 0
 1885 1072.19120693 1781.88286172 1248.06295434 1651.5 1365.5 c 128
 1564.27247229 1444.06663844 1458.38901202 1505.90917398 1332.5 1539 c 128
 1274.16666667 1554.33333333 1216 1562 1158 1562 c 0
 943.233354008 1562 779.374908816 1471.28498863 662.5 1364.5 c 128
 532.984709234 1246.16588541 431 1072.06272023 431 829 c 0
EndSplineSet
EndChar

StartChar: ordfeminine
Encoding: 170 170 107
Width: 965
Flags: HW
LayerCount: 2
Fore
SplineSet
179 575 m 1
 863 575 l 1
 863 446 l 1
 179 446 l 1
 179 575 l 1
708 1141 m 1
 649.636251761 1150.15509776 592.680688662 1158 532 1158 c 0
 361.333333333 1158 276 1095.66666667 276 971 c 0
 276 831.505905347 329.824609943 781 470 781 c 0
 567.693768956 781 650.731742713 831.574394293 693.5 884 c 128
 703.833333333 896.666666667 708.666666667 903 708 903 c 2
 708 1141 l 1
432 668 m 0
 238.311538632 668 115 766.920242316 115 960 c 0
 115 1164.50974571 268.830989529 1258 474 1258 c 0
 550.358354001 1258 630.988662334 1246.02868474 688 1227.5 c 128
 701.333333333 1223.16666667 708 1220 708 1218 c 2
 708 1276 l 2
 708 1386.66057573 694.896243097 1466.64150276 616.5 1498 c 128
 591.5 1508 558 1513 516 1513 c 0
 400.875177557 1513 301.148288483 1476.64691817 225 1443 c 1
 172 1552 l 2
 172.666666667 1552 181.666666667 1556.33333333 199 1565 c 128
 276.972513592 1603.9862568 387.263963939 1638 508 1638 c 0
 703.522015661 1638 814.03860779 1577.58591689 851 1420.5 c 128
 863 1369.5 869 1307.66666667 869 1235 c 2
 869 686 l 1
 753 686 l 1
 726 828 l 2
 725.333333333 828 720 819.666666667 710 803 c 128
 682.067611106 756.446018509 630.452549108 719.541316566 571 693 c 128
 533.666666667 676.333333333 487.333333333 668 432 668 c 0
EndSplineSet
EndChar

StartChar: guillemotleft
Encoding: 171 171 108
Width: 1453
Flags: HW
LayerCount: 2
Fore
SplineSet
1310 842 m 1
 873 577 l 1
 1310 306 l 1
 1310 99 l 1
 702 481 l 1
 702 666 l 1
 1310 1049 l 1
 1310 842 l 1
702 842 m 1
 266 577 l 1
 702 306 l 1
 702 99 l 1
 94 481 l 1
 94 666 l 1
 702 1049 l 1
 702 842 l 1
EndSplineSet
EndChar

StartChar: logicalnot
Encoding: 172 172 109
Width: 1788
Flags: HW
LayerCount: 2
Fore
SplineSet
1395 338 m 1
 1395 1023 l 1
 217 1023 l 1
 217 1174 l 1
 1571 1174 l 1
 1571 338 l 1
 1395 338 l 1
EndSplineSet
EndChar

StartChar: uni00AD
Encoding: 173 173 110
Width: 755
Flags: HW
LayerCount: 2
Fore
SplineSet
612 508 m 1
 144 508 l 1
 144 639 l 1
 612 639 l 1
 612 508 l 1
EndSplineSet
EndChar

StartChar: registered
Encoding: 174 174 111
Width: 2090
Flags: HW
LayerCount: 2
Fore
SplineSet
1015 997 m 2
 1130.21171622 997 1206 1023.8791444 1206 1134 c 0
 1206 1199.28906354 1146.18034466 1210.15995822 1081.5 1218 c 128
 1048.5 1222 1005.66666667 1224 953 1224 c 1
 953 997 l 1
 1015 997 l 2
1230 524 m 1
 1147.76051246 657.149646489 1082.18567756 765.902915902 1004 891 c 1
 948 891 l 1
 948 553 l 1
 811 553 l 1
 811 1330 l 1
 966 1330 l 2
 1108.62509695 1330 1215.3666123 1315.87825741 1287 1247 c 1
 1323 1215 1341 1179.33333333 1341 1140 c 0
 1341 986.65884499 1251.87048803 945.96710807 1126 914 c 1
 1359 591 l 1
 1230 524 l 1
1044 211 m 0
 809.400530114 211 624.077787042 304.463335189 500 425.5 c 128
 379.398840771 543.145248463 283 717.948470095 283 942 c 0
 283 1172.45783686 381.798052841 1339.54552652 501.5 1457.5 c 128
 625.793126815 1579.97862861 803.439298508 1674 1044 1674 c 0
 1282.8740232 1674 1460.36726345 1581.23132346 1585.5 1461.5 c 128
 1708.23997669 1344.0581518 1807 1174.69370265 1807 942 c 256
 1807 708.84611388 1708.16170984 541.235560937 1586 423.5 c 128
 1461.04455284 303.071924118 1283.12907397 211 1044 211 c 0
1043 338 m 0
 1236.37175646 338 1388.62139977 413.842828687 1490 514 c 128
 1588.57659849 611.388928629 1667 754.325599277 1667 939 c 0
 1667 1126.20139584 1587.51679563 1272.07308993 1487 1369 c 128
 1385.11012048 1467.25095525 1234.02200738 1542 1043 1542 c 0
 851.707774956 1542 701.110624096 1466.67422351 600 1368 c 128
 500.299632621 1270.70205111 423 1124.97843762 423 938 c 0
 423 751.97050455 499.611320309 607.993771747 599 511 c 128
 700.476662463 411.968558319 850.786107436 338 1043 338 c 0
EndSplineSet
EndChar

StartChar: macron
Encoding: 175 175 112
Width: 1024
Flags: HW
LayerCount: 2
Fore
SplineSet
895 98 m 1
 213 98 l 1
 213 215 l 1
 895 215 l 1
 895 98 l 1
EndSplineSet
EndChar

StartChar: degree
Encoding: 176 176 113
Width: 870
Flags: HW
LayerCount: 2
Fore
SplineSet
578 899 m 256
 578 985.261217299 522.966595752 1048 437 1048 c 0
 351.494007648 1048 292 984.157401053 292 899 c 0
 292 814.321005932 352.748439987 750 437 750 c 0
 522.613997951 750 578 813.244840772 578 899 c 256
439 1139 m 0
 552.640955288 1139 624.692021318 1076.48863211 657.5 994 c 128
 669.166666667 964.666666667 675 933 675 899 c 256
 675 786.674429969 616.272943096 711.423286798 535.5 678 c 128
 506.5 666 474.333333333 660 439 660 c 0
 324.345639109 660 245.772906339 721.793061386 212.5 804.5 c 128
 200.833333333 833.5 195 865 195 899 c 0
 195 1013.39312819 257.878469193 1087.75138768 341 1121 c 128
 371 1133 403.666666667 1139 439 1139 c 0
EndSplineSet
EndChar

StartChar: plusminus
Encoding: 177 177 114
Width: 936
Flags: HW
LayerCount: 2
Fore
SplineSet
852 518 m 1
 538 518 l 1
 538 174 l 1
 397 174 l 1
 397 518 l 1
 84 518 l 1
 84 651 l 1
 397 651 l 1
 397 995 l 1
 538 995 l 1
 538 651 l 1
 852 651 l 1
 852 518 l 1
819 -55 m 1
 118 -55 l 1
 118 88 l 1
 819 88 l 1
 819 -55 l 1
EndSplineSet
EndChar

StartChar: uni00B2
Encoding: 178 178 115
Width: 927
Flags: HW
LayerCount: 2
Fore
SplineSet
630 1354 m 0
 630 1453.91387974 544.8508461 1495 441 1495 c 0
 354.268091909 1495 254.182010541 1469.53954375 183.5 1451 c 128
 153 1443 l 1
 153 1588 l 1
 175.5 1596 l 130
 250.318731659 1622.6022157 353.861905518 1638 459 1638 c 0
 583.582302081 1638 672.773816735 1601.37973917 730.5 1540 c 128
 772.513085076 1495.32785891 802 1432.2530567 802 1357 c 0
 802 1230.08716269 743.164122491 1158.84683612 675.5 1089 c 128
 644.5 1057 605.666666667 1021.33333333 559 982 c 2
 368 820 l 1
 774 820 l 1
 774 668 l 1
 136 668 l 1
 136 805 l 1
 407 1045 l 2
 479.701901313 1109.14873645 538.207426492 1157.98173472 586.5 1225 c 128
 614.339466501 1263.63436168 630 1295.97870402 630 1354 c 0
EndSplineSet
EndChar

StartChar: uni00B3
Encoding: 179 179 116
Width: 959
Flags: HW
LayerCount: 2
Fore
SplineSet
674 853 m 0
 674 998.987126702 558.963205557 1055.42520238 412 1072 c 1
 412 1207 l 1
 513.561783254 1207 593.342513882 1241.23686738 633 1304.5 c 128
 647 1326.83333333 654.333333333 1353 655 1383 c 0
 655 1500.25182245 561.079176828 1541 431 1541 c 0
 355.337578239 1541 279.065880231 1522.49194472 226 1498 c 1
 197 1484 l 1
 150 1611 l 1
 221.3986021 1646.69930105 325.804861185 1677 436 1677 c 0
 606.694029049 1677 741.463373538 1615.94713931 791.5 1493 c 128
 803.166666667 1464.33333333 809 1431.33333333 809 1394 c 0
 807.195163887 1267.66147211 728.731881334 1184.83167367 633.5 1155 c 128
 605.833333333 1146.33333333 582.666666667 1142 564 1142 c 1
 718.974577402 1111.00508452 836.642133605 1019.68265174 840 835 c 1
 840 673.267124096 719.67997082 589.087187107 588.5 557 c 128
 542.166666667 545.666666667 496.333333333 540 451 540 c 0
 339.666666667 540 235 563.333333333 137 610 c 0
 127.666666667 614 123 616.666666667 123 618 c 2
 174 745 l 1
 174 745 174 745 196.5 734 c 128
 261.550688033 702.197441406 354.506833138 672 454 672 c 1
 574.063364037 674.501320084 674 731.968334606 674 853 c 0
EndSplineSet
EndChar

StartChar: acute
Encoding: 180 180 117
Width: 936
Flags: HW
LayerCount: 2
Fore
SplineSet
428 1472 m 1
 371 1498 l 1
 530 2109 l 1
 762 2018 l 1
 428 1472 l 1
EndSplineSet
EndChar

StartChar: paragraph
Encoding: 182 182 118
Width: 1360
Flags: HW
LayerCount: 2
Fore
SplineSet
158 1250 m 0
 158 1534.20054741 411.380820545 1573.93305537 692 1578 c 1
 1138 1578 l 1
 1138 0 l 1
 972 0 l 1
 972 1428 l 1
 817 1428 l 1
 817 0 l 1
 653 0 l 1
 653 905 l 1
 446.868582057 905 280.6191088 954.853077733 200 1082.5 c 128
 172 1126.83333333 158 1182.66666667 158 1250 c 0
EndSplineSet
EndChar

StartChar: periodcentered
Encoding: 183 183 119
Width: 459
Flags: HW
LayerCount: 2
Fore
SplineSet
119 650 m 256
 119 716.005244158 164.795266462 765 231 765 c 0
 294.687372009 765 339 713.503263587 339 650 c 256
 339 586.494994319 294.686271739 535 231 535 c 0
 164.185359666 535 119 583.526999459 119 650 c 256
EndSplineSet
EndChar

StartChar: cedilla
Encoding: 184 184 120
Width: 651
Flags: HW
LayerCount: 2
Fore
SplineSet
308 -578 m 0
 238.466706802 -578 175.546746235 -557.182248745 124 -540 c 1
 124 -423 l 1
 157.116359494 -434.63547766 208.949144952 -448.434622935 248 -457.5 c 128
 266.666666667 -461.833333333 280 -464 288 -464 c 0
 357.87001708 -464 398.403180575 -453.790458274 416 -401 c 128
 422 -383 425.666666667 -358.666666667 427 -328 c 1
 427 -199.371049737 306.616151342 -186 174 -186 c 1
 174 76 l 1
 295 76 l 1
 295 -98 l 1
 467.060253643 -98 560 -168.617545936 560 -342 c 0
 560 -499.333333333 476 -578 308 -578 c 0
EndSplineSet
EndChar

StartChar: uni00B9
Encoding: 185 185 121
Width: 581
Flags: HW
LayerCount: 2
Fore
SplineSet
270 478 m 1
 270 1304 l 1
 99 1232 l 1
 62 1345 l 1
 299 1440 l 1
 439 1414 l 1
 439 478 l 1
 270 478 l 1
EndSplineSet
EndChar

StartChar: ordmasculine
Encoding: 186 186 122
Width: 1077
Flags: HW
LayerCount: 2
Fore
SplineSet
200 575 m 1
 884 575 l 1
 884 446 l 1
 200 446 l 1
 200 575 l 1
538 1512 m 256
 339.480409694 1512 271 1353.36266084 271 1154 c 256
 271 954.670381323 339.625380981 797 538 797 c 256
 737.295339137 797 805 953.740773169 805 1154 c 0
 805 1352.43692061 735.601223378 1512 538 1512 c 256
114 1152 m 0
 114 1370.56061489 200.580871549 1525.94533321 349.5 1599 c 128
 402.5 1625 465.333333333 1638 538 1638 c 256
 759.834081852 1638 887.502747664 1511.53953747 937.5 1339 c 128
 954.5 1280.33333333 963 1218 963 1152 c 0
 963 933.278802497 877.445737128 779.461725136 727 708 c 128
 673.666666667 682.666666667 610.666666667 670 538 670 c 0
 317.29494673 670 190.563305602 791.862657961 140 963 c 128
 122.666666667 1021.66666667 114 1084.66666667 114 1152 c 0
EndSplineSet
EndChar

StartChar: guillemotright
Encoding: 187 187 123
Width: 1454
Flags: HW
LayerCount: 2
Fore
SplineSet
144 1049 m 1
 753 666 l 1
 753 481 l 1
 144 99 l 1
 144 306 l 1
 591 577 l 1
 144 842 l 1
 144 1049 l 1
751 1049 m 1
 1360 666 l 1
 1360 481 l 1
 751 99 l 1
 751 306 l 1
 1198 577 l 1
 751 842 l 1
 751 1049 l 1
EndSplineSet
EndChar

StartChar: onequarter
Encoding: 188 188 124
Width: 1721
Flags: HW
LayerCount: 2
Fore
SplineSet
1376 946 m 1
 1504 915 l 1
 1504 145 l 1
 1655 145 l 1
 1655 34 l 1
 1504 34 l 1
 1504 -227 l 1
 1359 -250 l 1
 1359 34 l 1
 834 34 l 1
 812 144 l 1
 1376 946 l 1
971 144 m 1
 1359 144 l 1
 1359 703 l 1
 1238.7993497 507.533983631 1102.24012325 328.426543417 971 144 c 1
345 568 m 1
 345 1413 l 1
 175 1341 l 1
 137 1434 l 1
 375 1529 l 1
 505 1503 l 1
 505 568 l 1
 345 568 l 1
207 -30 m 1
 1246 1365 l 1
 1368 1272 l 1
 327 -123 l 1
 207 -30 l 1
EndSplineSet
EndChar

StartChar: onehalf
Encoding: 189 189 125
Width: 1943
Flags: HW
LayerCount: 2
Fore
SplineSet
345 568 m 1
 345 1413 l 1
 175 1341 l 1
 137 1434 l 1
 375 1529 l 1
 505 1503 l 1
 505 568 l 1
 345 568 l 1
207 -30 m 1
 1246 1365 l 1
 1368 1272 l 1
 327 -123 l 1
 207 -30 l 1
1641 514 m 0
 1641 613.913879743 1555.8508461 655 1452 655 c 0
 1365.26809191 655 1265.18201054 629.539543749 1194.5 611 c 128
 1164 603 l 1
 1164 748 l 1
 1186.5 756 l 130
 1261.31873166 782.602215701 1364.86190552 798 1470 798 c 0
 1594.58230208 798 1683.77381674 761.379739168 1741.5 700 c 128
 1783.51308508 655.327858907 1813 592.2530567 1813 517 c 0
 1813 390.087162694 1754.16412249 318.84683612 1686.5 249 c 128
 1655.5 217 1616.66666667 181.333333333 1570 142 c 2
 1379 -20 l 1
 1785 -20 l 1
 1785 -172 l 1
 1147 -172 l 1
 1147 -35 l 1
 1418 205 l 2
 1490.70190131 269.148736453 1549.20742649 317.981734724 1597.5 385 c 128
 1625.3394665 423.634361675 1641 455.978704015 1641 514 c 0
EndSplineSet
EndChar

StartChar: threequarters
Encoding: 190 190 126
Width: 1960
Flags: HW
LayerCount: 2
Fore
SplineSet
1615 946 m 1
 1743 915 l 1
 1743 145 l 1
 1894 145 l 1
 1894 34 l 1
 1743 34 l 1
 1743 -227 l 1
 1598 -250 l 1
 1598 34 l 1
 1073 34 l 1
 1051 144 l 1
 1615 946 l 1
1210 144 m 1
 1598 144 l 1
 1598 703 l 1
 1477.7993497 507.533983631 1341.24012325 328.426543417 1210 144 c 1
446 -30 m 1
 1476 1365 l 1
 1607 1272 l 1
 566 -123 l 1
 446 -30 l 1
649 853 m 0
 649 998.987126702 533.963205557 1055.42520238 387 1072 c 1
 387 1207 l 1
 488.561783254 1207 568.342513882 1241.23686738 608 1304.5 c 128
 622 1326.83333333 629.333333333 1353 630 1383 c 0
 630 1500.25182245 536.079176828 1541 406 1541 c 0
 330.337578239 1541 254.065880231 1522.49194472 201 1498 c 1
 172 1484 l 1
 125 1611 l 1
 196.3986021 1646.69930105 300.804861185 1677 411 1677 c 0
 581.694029049 1677 716.463373538 1615.94713931 766.5 1493 c 128
 778.166666667 1464.33333333 784 1431.33333333 784 1394 c 0
 782.195163887 1267.66147211 703.731881334 1184.83167367 608.5 1155 c 128
 580.833333333 1146.33333333 557.666666667 1142 539 1142 c 1
 693.974577402 1111.00508452 811.642133605 1019.68265174 815 835 c 1
 815 673.267124096 694.67997082 589.087187107 563.5 557 c 128
 517.166666667 545.666666667 471.333333333 540 426 540 c 0
 293.834618583 537.552492937 184.670127429 574.664936286 98 618 c 1
 149 745 l 1
 149 745 149 745 171.5 734 c 128
 236.550688033 702.197441406 329.506833138 672 429 672 c 1
 549.063364037 674.501320084 649 731.968334606 649 853 c 0
EndSplineSet
EndChar

StartChar: questiondown
Encoding: 191 191 127
Width: 1087
Flags: HW
LayerCount: 2
Fore
SplineSet
334 268 m 1
 334 84.8931162813 459.364848551 47 645 47 c 0
 764.258678186 47 874.077963218 76.4919389161 948.5 117.5 c 128
 964.833333333 126.5 973 131.666666667 973 133 c 2
 1032 -10 l 2
 1032 -9.33333333333 1021.83333333 -14.5 1001.5 -25.5 c 128
 909.600007493 -75.2163893893 771.802127406 -114 626 -114 c 0
 414.771169616 -114 253.908201696 -56.8288085681 180 81 c 128
 155.333333333 127 143 183 143 249 c 0
 143 490.731555304 290.173994661 612.989812345 449.5 696 c 128
 520.797990658 733.146852276 601.699730984 762.891903154 677 790 c 1
 677 1173 l 1
 857 1173 l 1
 857 688 l 1
 706.224369802 635.456977355 572.202553039 586.981764688 466.5 507.5 c 128
 392.16953602 451.608100728 337.083299227 383.623721009 334 268 c 1
671 1401 m 0
 671 1460.91730873 716.078731165 1505 776 1505 c 0
 837.861477447 1505 880 1457.07799745 880 1395 c 0
 880 1337.0335451 829.7296516 1296 772 1296 c 0
 714.345043516 1296 671 1343.25095666 671 1401 c 0
EndSplineSet
EndChar

StartChar: AE
Encoding: 198 198 134
Width: 1931
Flags: HW
LayerCount: 2
Fore
SplineSet
1800 0 m 1
 961 0 l 1
 961 371 l 1
 409 371 l 1
 217 0 l 1
 8 0 l 1
 834 1579 l 1
 1772 1579 l 1
 1772 1436 l 1
 1124 1436 l 1
 1124 891 l 1
 1729 891 l 1
 1729 764 l 1
 1126 764 l 1
 1126 143 l 1
 1800 143 l 1
 1800 0 l 1
959 1459 m 1
 469 493 l 1
 959 493 l 1
 959 1459 l 1
EndSplineSet
EndChar

StartChar: Eth
Encoding: 208 208 144
Width: 1587
Flags: HW
LayerCount: 2
Fore
SplineSet
1183 789 m 0
 1183 1156.07304196 1090.81888115 1436 725 1436 c 2
 366 1436 l 1
 366 143 l 1
 725 143 l 2
 1093.44411573 143 1183 420.828139324 1183 789 c 0
725 1579 m 1
 1193.7723454 1569.26288897 1384 1278.61803067 1384 788 c 0
 1384 262.666666667 1164.33333333 0 725 0 c 2
 172 0 l 1
 172 1579 l 1
 725 1579 l 1
600 764 m 1
 10 764 l 1
 10 895 l 1
 600 895 l 1
 600 764 l 1
EndSplineSet
EndChar

StartChar: multiply
Encoding: 215 215 151
Width: 1272
Flags: HW
LayerCount: 2
Fore
SplineSet
217 863 m 1
 319 965 l 1
 636 648 l 1
 953 965 l 1
 1055 863 l 1
 738 546 l 1
 1055 229 l 1
 953 127 l 1
 636 444 l 1
 319 127 l 1
 217 229 l 1
 534 546 l 1
 217 863 l 1
EndSplineSet
EndChar

StartChar: Oslash
Encoding: 216 216 152
Width: 1612
Flags: HW
LayerCount: 2
Fore
SplineSet
328 -113 m 1
 1153 1710 l 1
 1254 1668 l 1
 429 -159 l 1
 328 -113 l 1
743 1610 m 0
 1232.14371488 1610 1413 1272.66947091 1413 784 c 0
 1413 377.972630244 1286.77501384 80.990449155 973.5 -12.5 c 128
 909.833333333 -31.5 837.666666667 -41 757 -41 c 0
 387.475438356 -41 206.347076105 161.079759239 133.5 467.5 c 128
 112.5 555.833333333 102 661.333333333 102 784 c 0
 102 1007.16804031 140.204843971 1183.70574069 216.5 1320 c 128
 314.890009927 1495.76467793 480.964429004 1610 743 1610 c 0
758 111 m 0
 1124.26266026 111 1212 417.772196833 1212 784 c 0
 1212 1161.44726531 1122.88282799 1458 758 1458 c 0
 389.705792303 1458 303 1153.29382845 303 784 c 0
 303 561.448738074 336.094791005 384.45998864 425.5 263.5 c 128
 496.90554506 166.89249786 600.818578082 111 758 111 c 0
EndSplineSet
EndChar

StartChar: Yacute
Encoding: 221 221 157
Width: 1251
Flags: HW
LayerCount: 2
Fore
SplineSet
610 677 m 1
 1023 1579 l 1
 1214 1579 l 1
 700 485 l 1
 700 0 l 1
 510 0 l 1
 510 485 l 1
 -4 1579 l 1
 193 1579 l 1
 547 806 l 1
 610 677 l 1
661 1732 m 1
 547 1758 l 1
 763 2369 l 1
 995 2278 l 1
 661 1732 l 1
EndSplineSet
EndChar

StartChar: Thorn
Encoding: 222 222 158
Width: 1364
Flags: HW
LayerCount: 2
Fore
SplineSet
1290 973 m 0
 1290 705.584650427 1140.31975373 592.500859554 913.5 538 c 128
 819.166666667 515.333333333 700.333333333 504 557 504 c 2
 395 504 l 1
 395 0 l 1
 201 0 l 1
 201 1579 l 1
 395 1579 l 1
 395 1444 l 1
 592 1444 l 2
 934.075979742 1444 1224.60408998 1392.05335719 1278 1109.5 c 128
 1286 1067.16666667 1290 1021.66666667 1290 973 c 0
557 649 m 2
 808.824141502 649 1061.33701461 669.2416103 1100.5 875.5 c 128
 1105.5 901.833333333 1108 929.666666667 1108 959 c 0
 1108 1086.06588142 1086.97978632 1169.49186379 1012.5 1222.5 c 128
 919.533936147 1288.66503644 778.331554904 1297.77921586 604 1300 c 1
 395 1300 l 1
 395 649 l 1
 557 649 l 2
EndSplineSet
EndChar

StartChar: germandbls
Encoding: 223 223 159
Width: 1425
Flags: HW
LayerCount: 2
Fore
SplineSet
1149 1176 m 0
 1149 992.310570818 1067.1799094 863.154322763 903 844 c 1
 1109.63611904 844 1241.62867135 741.486358033 1299.5 589 c 128
 1320.5 533.666666667 1331 470.333333333 1331 399 c 2
 1331 395 l 2
 1331 -16.9180202057 966.712641762 -129 557 -129 c 1
 557 27 l 1
 847.98264464 27 1102.80435943 69.6155638311 1141 315.5 c 128
 1146.33333333 349.833333333 1149 386 1149 424 c 2
 1149 432 l 2
 1149 629.674604472 1015.20353762 711.306057793 844.5 749.5 c 128
 771.5 765.833333333 682 774 576 774 c 2
 525 774 l 1
 525 905 l 1
 549 905 l 1
 683 913 772.666666667 922.666666667 818 934 c 0
 937.046886178 966.467332594 977 1047.31526787 977 1200 c 0
 977 1387.85876726 844.589125516 1436 656 1436 c 0
 482.725965791 1436 410.390835955 1363.65714584 391 1209.5 c 128
 384.333333333 1156.5 381 1092.66666667 381 1018 c 2
 381 16 l 1
 187 -6 l 1
 187 991 l 2
 187 1009.77227801 186 1027.22718202 186 1046 c 0
 186 1392.95828996 309.134669031 1579 656 1579 c 0
 984.666666667 1579 1149 1444.66666667 1149 1176 c 0
EndSplineSet
EndChar

StartChar: ae
Encoding: 230 230 166
Width: 1937
Flags: HW
LayerCount: 2
Fore
SplineSet
515 -23 m 0
 271.553643936 -23 123 96.5146313185 123 339 c 2
 123 343 l 2
 123 597.453466702 311.491542683 715 567 715 c 0
 651.26231644 715 738.818329307 700.621974638 809 684 c 128
 834.333333333 678 855 671.666666667 871 665 c 1
 871 713 l 2
 871 869.980500162 862.136142152 993.945893446 747.5 1031 c 128
 714.5 1041.66666667 671.666666667 1047 619 1047 c 0
 501.673954921 1047 393.446944299 1009.48611464 314.5 969.5 c 128
 288.833333333 956.5 269.333333333 945 256 935 c 1
 189 1057 l 1
 260.681773049 1119.43251201 387.583400009 1158.20695667 501 1179 c 128
 541 1186.33333333 577 1190 609 1190 c 0
 818.215324265 1190 942.828296047 1130.57234651 991 970 c 1
 1056.19546991 1102.80558684 1191.25727195 1190 1386 1190 c 0
 1615.30542907 1190 1745.51214279 1064.05525883 1800 886.5 c 128
 1819.33333333 823.5 1829 753.333333333 1829 676 c 0
 1829 638.209945451 1825.70457635 603.460466736 1821 567 c 1
 1061 567 l 1
 1061 300.593173747 1140.33833672 127 1407 127 c 0
 1519.66666667 127 1621.66666667 166 1713 244 c 1
 1775 99 l 1
 1700.53455686 44.1307261096 1589.66391445 4.07360147125 1481.5 -14.5 c 128
 1448.5 -20.1666666667 1419.66666667 -23 1395 -23 c 0
 1181.8687277 -23 1042.11220501 66.8036412397 962 207 c 1
 890.566159417 111.754879222 785.305531005 34.5632760091 655.5 -3.5 c 128
 611.166666667 -16.5 564.333333333 -23 515 -23 c 0
314 356 m 0
 314 186.513693906 392.423240148 119 562 119 c 0
 659.333333333 119 762.333333333 169.666666667 871 271 c 1
 871 569 l 1
 783.666666667 583 705.333333333 590 636 590 c 0
 442.949163245 590 314 542.712388098 314 356 c 0
1661 717 m 2
 1661 921.571877562 1580.93539078 1057 1387 1057 c 0
 1163.81575899 1057 1061 908.469295809 1061 682 c 1
 1661 682 l 1
 1661 717 l 2
EndSplineSet
EndChar

StartChar: eth
Encoding: 240 240 176
Width: 1253
Flags: HW
LayerCount: 2
Fore
SplineSet
454 1401 m 1
 1102 1593 l 1
 1144 1503 l 1
 496 1311 l 1
 454 1401 l 1
1130 690 m 0
 1130 216.666666667 952.333333333 -20 597 -20 c 0
 333.165401371 -20 193.698613469 141.672793641 140.5 353.5 c 128
 122.166666667 426.5 113 503.333333333 113 584 c 0
 113 845.537317805 205.654514574 1046.82940991 374.5 1141.5 c 128
 432.166666667 1173.83333333 499 1190 575 1190 c 0
 700.725541697 1190 805.237775944 1141.18453241 878.5 1086 c 128
 904.166666667 1066.66666667 924.666666667 1047.33333333 940 1028 c 1
 875.046868546 1222.85939436 741.293279568 1387.01556266 601.5 1514.5 c 128
 548.5 1562.83333333 493.333333333 1605 436 1641 c 1
 520 1743 l 1
 681.57724356 1652.418818 817.36249394 1524.46363574 924 1371.5 c 128
 1043.22090975 1200.48639994 1130 976.986131408 1130 690 c 0
593 123 m 0
 885.478310891 123 946 363.293154094 946 666 c 0
 946 845.200852087 877.931442462 957.686104359 759 1015.5 c 128
 719.274565531 1034.81097509 671.519231239 1047 619 1047 c 0
 359.957582112 1047 295 851.42256448 295 587 c 0
 295 277.666666667 394.333333333 123 593 123 c 0
EndSplineSet
EndChar

StartChar: divide
Encoding: 247 247 183
Width: 827
Flags: HW
LayerCount: 2
Fore
SplineSet
756 508 m 1
 74 508 l 1
 74 639 l 1
 756 639 l 1
 756 508 l 1
301 815 m 256
 301 881.005244158 346.795266462 930 413 930 c 0
 476.687372009 930 521 878.503263587 521 815 c 256
 521 751.494994319 476.686271739 700 413 700 c 0
 346.185359666 700 301 748.526999459 301 815 c 256
299 330 m 256
 299 396.005244158 344.795266462 445 411 445 c 0
 474.687372009 445 519 393.503263587 519 330 c 256
 519 266.494994319 474.686271739 215 411 215 c 0
 344.185359666 215 299 263.526999459 299 330 c 256
EndSplineSet
EndChar

StartChar: oslash
Encoding: 248 248 184
Width: 1253
Flags: HW
LayerCount: 2
Fore
SplineSet
298 -168 m 1
 827 1365 l 1
 908 1335 l 1
 386 -198 l 1
 298 -168 l 1
602 1051 m 0
 403.064675659 1051 312.916076939 928.853118015 274 768 c 0
 260.666666667 711.333333333 254 649.333333333 254 582 c 0
 254 379.843865397 309.787071203 224.570688435 441 153 c 128
 485 129 538.666666667 117 602 117 c 0
 862.265924823 117 950 321.864129683 950 582 c 0
 950 785.513123666 894.019288669 942.989478908 762 1015 c 128
 718 1039 664.666666667 1051 602 1051 c 0
602 1190 m 0
 879.521910669 1190 1038.4472707 1032.50239337 1101 816.5 c 128
 1122.33333333 742.833333333 1133 664.666666667 1133 582 c 256
 1133 309.114639197 1026.79294256 116.701647718 839 27.5 c 128
 772.333333333 -4.16666666667 693.333333333 -20 602 -20 c 0
 329.029475434 -20 169.535866025 130.277218037 105.5 341.5 c 128
 83.1666666667 415.166666667 72 495.333333333 72 582 c 0
 72 856.72012465 180.069613588 1052.54579543 368.5 1142.5 c 128
 434.833333333 1174.16666667 512.666666667 1190 602 1190 c 0
EndSplineSet
EndChar

StartChar: yacute
Encoding: 253 253 189
Width: 1212
Flags: HW
LayerCount: 2
Fore
SplineSet
598 249 m 1
 899 1169 l 1
 1094 1169 l 1
 657 -37 l 2
 633.316249312 -102.130314392 616.688497763 -154.786942253 594 -203 c 0
 525.137705572 -353.142379655 420.150103294 -459 223 -459 c 1
 172 -334 l 1
 272 -317.333333333 344.333333333 -285.666666667 389 -239 c 0
 433 -193 474 -105.666666667 512 23 c 1
 61 1169 l 1
 243 1169 l 1
 598 249 l 1
537 1312 m 1
 480 1338 l 1
 639 1949 l 1
 871 1858 l 1
 537 1312 l 1
EndSplineSet
EndChar

StartChar: thorn
Encoding: 254 254 190
Width: 1312
Flags: HW
LayerCount: 2
Fore
SplineSet
1200 584 m 0
 1200 325.752667798 1109.75414942 126.555748546 943 31 c 128
 883.666666667 -3 813 -20 731 -20 c 0
 565 -20 445.333333333 25.6666666667 372 117 c 1
 372 -465 l 1
 186 -487 l 1
 186 1565 l 1
 370 1565 l 1
 370 1004 l 1
 431.854655641 1081.31831955 518.092893455 1146.37844134 626 1176 c 128
 660 1185.33333333 695 1190 731 1190 c 0
 967.37826079 1190 1091.45452503 1049.60611762 1154 875 c 128
 1183.5660833 792.461350786 1200 691.711836139 1200 584 c 0
1018 543 m 0
 1018 757.004964662 981.406255134 952.796872433 838 1024.5 c 128
 808 1039.5 772.333333333 1047 731 1047 c 0
 583.950104396 1047 468.296560808 963.296560808 395 890 c 1
 379 244 l 1
 459.798465522 173.974663214 591.795197713 123 739 123 c 0
 883.13883929 123 957.491819431 224.380967269 989 343 c 0
 1008.33333333 415 1018 481.666666667 1018 543 c 0
EndSplineSet
EndChar

StartChar: dotlessi
Encoding: 305 305 192
Width: 468
Flags: HW
LayerCount: 2
Fore
SplineSet
326 0 m 1
 144 0 l 1
 144 1169 l 1
 326 1169 l 1
 326 0 l 1
EndSplineSet
EndChar

StartChar: Utilde
Encoding: 360 360 193
Width: 1499
Flags: HW
LayerCount: 2
Fore
SplineSet
1379 715 m 2
 1379 246.916427219 1216.70498544 -36.0244150485 749 -41 c 1
 284.812668222 -41 123 248.642553638 123 715 c 2
 123 1579 l 1
 315 1579 l 1
 315 711 l 2
 315 399.759920192 365.314899636 143.741229779 633.5 107.5 c 128
 670.5 102.5 709 100 749 100 c 0
 959.676665776 100 1073.17831166 170.475497756 1131.5 326 c 128
 1170.53116944 430.083118506 1183 558.766969883 1183 711 c 2
 1183 1579 l 1
 1379 1579 l 1
 1379 715 l 2
551 1851 m 0
 499.094596771 1851 492 1801.36320535 492 1736 c 1
 336 1736 l 1
 336 1909.33333333 403 1996 537 1996 c 0
 615.481077157 1996 675.647438512 1962.86229385 727.5 1933.5 c 128
 772.151664549 1908.21532248 820.453545217 1871 881 1871 c 0
 920.333333333 1871 940 1908 940 1982 c 1
 1096 1982 l 1
 1096 1870.44011556 1057.11937316 1787.32813287 983.5 1750 c 128
 959.833333333 1738 933.333333333 1732 904 1732 c 0
 787.109657893 1732 696.177774311 1793.46608356 616 1832.5 c 128
 590.666666667 1844.83333333 569 1851 551 1851 c 0
EndSplineSet
EndChar

StartChar: mu
Encoding: 956 956 194
Width: 1303
Flags: HW
LayerCount: 2
Fore
SplineSet
588 -20 m 0
 470.20466872 -20 398.38700584 47.4968924083 348 113 c 1
 348 -291 l 1
 174 -291 l 1
 174 1169 l 1
 348 1169 l 1
 348 442 l 2
 348 229.333333333 432 123 600 123 c 0
 730.150619932 123 838.73993577 177.293048077 908 237 c 128
 927.333333333 253.666666667 940.333333333 266 947 274 c 1
 947 1169 l 1
 1155 1169 l 1
 1155 16 l 1
 1009 16 l 1
 985 170 l 1
 871 43.3333333333 738.666666667 -20 588 -20 c 0
EndSplineSet
EndChar

StartChar: endash
Encoding: 8211 8211 195
Width: 1024
Flags: HW
LayerCount: 2
Fore
SplineSet
0 633 m 1
 1024 633 l 1
 1024 489 l 1
 0 489 l 1
 0 633 l 1
EndSplineSet
EndChar

StartChar: emdash
Encoding: 8212 8212 196
Width: 2048
Flags: HW
LayerCount: 2
Fore
SplineSet
0 633 m 1
 2048 633 l 1
 2048 489 l 1
 0 489 l 1
 0 633 l 1
EndSplineSet
EndChar

StartChar: quoteleft
Encoding: 8216 8216 197
Width: 547
Flags: HW
LayerCount: 2
Fore
SplineSet
450 356 m 1
 383 330 l 1
 55 885 l 1
 297 974 l 1
 450 356 l 1
EndSplineSet
EndChar

StartChar: quoteright
Encoding: 8217 8217 198
Width: 534
Flags: HW
LayerCount: 2
Fore
SplineSet
136 1286 m 1
 136 1579 l 1
 417 1579 l 1
 417 1330 l 2
 417 1163.29902634 324.311683912 1071.9461954 188 1033 c 1
 137 1127 l 1
 215.464388328 1153.84308022 267 1183.00219887 267 1286 c 1
 136 1286 l 1
EndSplineSet
EndChar

StartChar: quotesinglbase
Encoding: 8218 8218 199
Width: 532
Flags: HW
LayerCount: 2
Fore
SplineSet
135 0 m 1
 135 293 l 1
 416 293 l 1
 416 44 l 2
 416 -122.70097366 323.311683912 -214.053804597 187 -253 c 1
 136 -159 l 1
 214.464388328 -132.156919782 266 -102.99780113 266 0 c 1
 135 0 l 1
EndSplineSet
EndChar

StartChar: quotedblleft
Encoding: 8220 8220 200
Width: 923
Flags: HW
LayerCount: 2
Fore
SplineSet
414 1356 m 1
 414 1063 l 1
 133 1063 l 1
 133 1312 l 2
 133 1478.70097366 225.688316088 1570.0538046 362 1609 c 1
 413 1515 l 1
 334.171821913 1488.03246539 283 1459.63111023 283 1356 c 1
 414 1356 l 1
783 1356 m 1
 783 1063 l 1
 502 1063 l 1
 502 1312 l 2
 502 1478.70097366 594.688316088 1570.0538046 731 1609 c 1
 782 1515 l 1
 703.171821913 1488.03246539 652 1459.63111023 652 1356 c 1
 783 1356 l 1
EndSplineSet
EndChar

StartChar: quotedblright
Encoding: 8221 8221 201
Width: 922
Flags: HW
LayerCount: 2
Fore
SplineSet
140 1286 m 1
 140 1579 l 1
 421 1579 l 1
 421 1330 l 2
 421 1163.29902634 328.311683912 1071.9461954 192 1033 c 1
 141 1127 l 1
 219.464388328 1153.84308022 271 1183.00219887 271 1286 c 1
 140 1286 l 1
509 1286 m 1
 509 1579 l 1
 790 1579 l 1
 790 1330 l 2
 790 1163.29902634 697.311683912 1071.9461954 561 1033 c 1
 510 1127 l 1
 588.464388328 1153.84308022 640 1183.00219887 640 1286 c 1
 509 1286 l 1
EndSplineSet
EndChar

StartChar: quotedblbase
Encoding: 8222 8222 202
Width: 922
Flags: HW
LayerCount: 2
Fore
SplineSet
140 -19 m 1
 140 274 l 1
 421 274 l 1
 421 25 l 2
 421 -141.70097366 328.311683912 -233.053804597 192 -272 c 1
 141 -178 l 1
 219.464388328 -151.156919782 271 -121.99780113 271 -19 c 1
 140 -19 l 1
509 -19 m 1
 509 274 l 1
 790 274 l 1
 790 25 l 2
 790 -141.70097366 697.311683912 -233.053804597 561 -272 c 1
 510 -178 l 1
 588.464388328 -151.156919782 640 -121.99780113 640 -19 c 1
 509 -19 l 1
EndSplineSet
EndChar

StartChar: dagger
Encoding: 8224 8224 203
Width: 968
Flags: HW
LayerCount: 2
Fore
SplineSet
911 1020 m 1
 583 1020 l 1
 583 0 l 1
 393 0 l 1
 393 1020 l 1
 57 1020 l 1
 57 1161 l 1
 392 1161 l 1
 392 1468 l 1
 585 1468 l 1
 585 1161 l 1
 911 1161 l 1
 911 1020 l 1
EndSplineSet
EndChar

StartChar: daggerdbl
Encoding: 8225 8225 204
Width: 968
Flags: HW
LayerCount: 2
Fore
SplineSet
911 1020 m 1
 583 1020 l 1
 583 444 l 1
 909 444 l 1
 909 305 l 1
 583 305 l 1
 583 0 l 1
 392 0 l 1
 392 305 l 1
 57 305 l 1
 57 444 l 1
 392 444 l 1
 392 1020 l 1
 57 1020 l 1
 57 1161 l 1
 392 1161 l 1
 392 1468 l 1
 585 1468 l 1
 585 1161 l 1
 911 1161 l 1
 911 1020 l 1
EndSplineSet
EndChar

StartChar: bullet
Encoding: 8226 8226 205
Width: 1312
Flags: HW
LayerCount: 2
Fore
SplineSet
1005 692 m 0
 1005 503.311255718 847.297433254 358 655 358 c 0
 493.643868796 358 384.28954088 447.382889122 334 561 c 128
 316 601.666666667 307 645.333333333 307 692 c 256
 307 849.471053416 403.29340721 955.238245472 517.5 1002 c 128
 559.833333333 1019.33333333 605.666666667 1028 655 1028 c 0
 815.671115872 1028 928.112403117 936.132859567 978 822.5 c 128
 996 781.5 1005 738 1005 692 c 0
EndSplineSet
EndChar

StartChar: ellipsis
Encoding: 8230 8230 206
Width: 1535
Flags: HW
LayerCount: 2
Fore
SplineSet
139 98 m 256
 139 164.005244158 184.795266462 213 251 213 c 0
 314.687372009 213 359 161.503263587 359 98 c 256
 359 34.4949943186 314.686271739 -17 251 -17 c 0
 184.185359666 -17 139 31.5269994594 139 98 c 256
657 98 m 256
 657 164.005244158 702.795266462 213 769 213 c 0
 832.687372009 213 877 161.503263587 877 98 c 256
 877 34.4949943186 832.686271739 -17 769 -17 c 0
 702.185359666 -17 657 31.5269994594 657 98 c 256
1175 98 m 256
 1175 164.005244158 1220.79526646 213 1287 213 c 0
 1350.68737201 213 1395 161.503263587 1395 98 c 256
 1395 34.4949943186 1350.68627174 -17 1287 -17 c 0
 1220.18535967 -17 1175 31.5269994594 1175 98 c 256
EndSplineSet
EndChar

StartChar: guilsinglleft
Encoding: 8249 8249 207
Width: 819
Flags: HW
LayerCount: 2
Fore
SplineSet
766 842 m 1
 319 577 l 1
 766 306 l 1
 766 99 l 1
 158 481 l 1
 158 666 l 1
 766 1049 l 1
 766 842 l 1
EndSplineSet
EndChar

StartChar: guilsinglright
Encoding: 8250 8250 208
Width: 819
Flags: HW
LayerCount: 2
Fore
SplineSet
193 1049 m 1
 801 666 l 1
 801 481 l 1
 193 99 l 1
 193 306 l 1
 639 577 l 1
 193 842 l 1
 193 1049 l 1
EndSplineSet
EndChar

StartChar: uni203E
Encoding: 8254 8254 209
Width: 970
Flags: HW
LayerCount: 2
Fore
SplineSet
826 122 m 1
 144 122 l 1
 144 239 l 1
 826 239 l 1
 826 122 l 1
EndSplineSet
EndChar

StartChar: NameMe.209
Encoding: 8364 8364 210
Width: 1210
Flags: HW
LayerCount: 2
Fore
SplineSet
292 931 m 1
 310.888939385 1238.61986999 466.777684323 1439 793 1439 c 0
 913.610673706 1439 1019.01046687 1415.49476657 1098 1376 c 1
 1055 1254 l 1
 1017 1269 l 2
 958.796012973 1292.28159481 868.195204958 1308 790 1308 c 0
 562.697866178 1308 454 1164.67702393 454 931 c 1
 848 931 l 1
 848 809 l 1
 443 809 l 1
 438.342339179 776.396374251 439.012821619 739.551329608 438 696 c 1
 791 696 l 1
 791 574 l 1
 437 574 l 1
 437 408.74985378 470.498018981 282.382717261 542 200 c 128
 592.311923 142.031914804 662.398358202 103.701848033 756 102 c 1
 869.791437221 102 970.90653698 138.878067152 1041 178 c 1
 1093 55 l 2
 1092.33333333 54.3333333333 1084.16666667 49.1666666667 1068.5 39.5 c 128
 987.277781689 -10.6158368305 861.431809945 -38 723 -38 c 0
 589.914244204 -38 489.773127365 31.2946211965 421 113.5 c 128
 330.771905856 221.350768782 275.609028694 377.433425401 268 574 c 1
 104 574 l 1
 104 696 l 1
 264 696 l 1
 265.01400154 739.60206621 265.573440095 775.028161334 268 809 c 1
 88 809 l 1
 88 931 l 1
 292 931 l 1
EndSplineSet
EndChar

StartChar: trademark
Encoding: 8482 8482 211
Width: 2227
Flags: HW
LayerCount: 2
Fore
SplineSet
849 1310 m 1
 640 1310 l 1
 640 624 l 1
 505 624 l 1
 505 1310 l 1
 295 1310 l 1
 295 1413 l 1
 849 1413 l 1
 849 1310 l 1
1372 758 m 1
 1556 1413 l 1
 1785 1413 l 1
 1785 624 l 1
 1658 624 l 1
 1658 1288 l 1
 1461 624 l 1
 1283 624 l 1
 1087 1288 l 1
 1087 624 l 1
 959 624 l 1
 959 1413 l 1
 1188 1413 l 1
 1372 758 l 1
EndSplineSet
EndChar

StartChar: OE
Encoding: 338 338 215
Width: 2759
Flags: HW
LayerCount: 2
Fore
SplineSet
764 1610 m 0
 974.092099076 1610 1125.62050403 1557.77624949 1234 1459 c 1
 1234 1579 l 1
 2204 1579 l 1
 2204 1436 l 1
 1428 1436 l 1
 1428 891 l 1
 2106 891 l 1
 2106 776 l 1
 1428 776 l 1
 1428 143 l 1
 2217 143 l 1
 2217 0 l 1
 1234 0 l 1
 1234 128 l 1
 1130.89078276 20.9250436302 987.022016852 -41 778 -41 c 0
 300.146913389 -41 124 296.880503517 124 784 c 0
 124 1165.8688773 232.794274362 1439.07629267 490 1555 c 128
 569.218760399 1590.70423004 661.21362281 1610 764 1610 c 0
1234 1301 m 1
 1141.31643243 1402.95192433 977.389620777 1458 780 1458 c 0
 410.762097081 1458 324 1152.95685405 324 784 c 0
 324 403.603513859 420.845233968 111 789 111 c 0
 928.916182337 111 1043.65510337 145.508423777 1127 194 c 0
 1169.66666667 218 1205.33333333 245.666666667 1234 277 c 1
 1234 1301 l 1
EndSplineSet
EndChar

StartChar: ring
Encoding: 730 730 216
Width: 573
Flags: HW
LayerCount: 2
Fore
SplineSet
429 1495 m 256
 429 1581.2612173 373.966595752 1644 288 1644 c 0
 202.494007648 1644 143 1580.15740105 143 1495 c 0
 143 1410.32100593 203.748439987 1346 288 1346 c 0
 373.613997951 1346 429 1409.24484077 429 1495 c 256
290 1735 m 0
 403.640955288 1735 475.692021318 1672.48863211 508.5 1590 c 128
 520.166666667 1560.66666667 526 1529 526 1495 c 256
 526 1382.67442997 467.272943096 1307.4232868 386.5 1274 c 128
 357.5 1262 325.333333333 1256 290 1256 c 0
 175.345639109 1256 96.7729063389 1317.79306139 63.5 1400.5 c 128
 51.8333333333 1429.5 46 1461 46 1495 c 0
 46 1609.39312819 108.878469193 1683.75138768 192 1717 c 128
 222 1729 254.666666667 1735 290 1735 c 0
EndSplineSet
EndChar

StartChar: tilde
Encoding: 732 732 217
Width: 871
Flags: HW
LayerCount: 2
Fore
SplineSet
272 1431 m 0
 220.094596771 1431 213 1381.36320535 213 1316 c 1
 57 1316 l 1
 57 1489.33333333 124 1576 258 1576 c 0
 336.481077157 1576 396.647438512 1542.86229385 448.5 1513.5 c 128
 493.151664549 1488.21532248 541.453545217 1451 602 1451 c 0
 641.333333333 1451 661 1488 661 1562 c 1
 817 1562 l 1
 817 1450.44011556 778.11937316 1367.32813287 704.5 1330 c 128
 680.833333333 1318 654.333333333 1312 625 1312 c 0
 508.109657893 1312 417.177774311 1373.46608356 337 1412.5 c 128
 311.666666667 1424.83333333 290 1431 272 1431 c 0
EndSplineSet
EndChar

StartChar: circumflex
Encoding: 710 710 218
Width: 736
Flags: HW
LayerCount: 2
Fore
SplineSet
156 1472 m 1
 28 1550 l 1
 320 2051 l 1
 416 2051 l 1
 708 1550 l 1
 580 1472 l 1
 368 1849 l 1
 156 1472 l 1
EndSplineSet
EndChar

StartChar: hungarumlaut
Encoding: 733 733 220
Width: 794
Flags: HW
LayerCount: 2
Fore
SplineSet
435 1472 m 1
 378 1498 l 1
 537 2109 l 1
 769 2018 l 1
 435 1472 l 1
101 1472 m 1
 44 1498 l 1
 203 2109 l 1
 435 2018 l 1
 101 1472 l 1
EndSplineSet
EndChar

StartChar: caron
Encoding: 711 711 221
Width: 736
Flags: HW
LayerCount: 2
Fore
SplineSet
368 1674 m 1
 580 2051 l 1
 708 1973 l 1
 416 1472 l 1
 320 1472 l 1
 28 1973 l 1
 156 2051 l 1
 368 1674 l 1
EndSplineSet
EndChar

StartChar: uni030F
Encoding: 783 783 222
Width: 794
Flags: HW
LayerCount: 2
Fore
SplineSet
359 2018 m 1
 591 2109 l 1
 750 1498 l 1
 693 1472 l 1
 359 2018 l 1
25 2018 m 1
 257 2109 l 1
 416 1498 l 1
 359 1472 l 1
 25 2018 l 1
EndSplineSet
EndChar

StartChar: fraction
Encoding: 8260 8260 223
Width: 795
Flags: HW
LayerCount: 2
Fore
SplineSet
788 1679 m 1
 167 -172 l 1
 7 -114 l 1
 630 1731 l 1
 788 1679 l 1
EndSplineSet
EndChar

StartChar: dotaccent
Encoding: 729 729 224
Width: 463
Flags: HW
LayerCount: 2
Fore
SplineSet
124 1462 m 256
 124 1528.00524416 169.795266462 1577 236 1577 c 0
 299.687372009 1577 344 1525.50326359 344 1462 c 256
 344 1398.49499432 299.686271739 1347 236 1347 c 0
 169.185359666 1347 124 1395.52699946 124 1462 c 256
EndSplineSet
EndChar

StartChar: florin
Encoding: 402 402 225
Width: 1334
Flags: HW
LayerCount: 2
Fore
SplineSet
599 764 m 1
 404 764 l 1
 422 869 l 1
 617 869 l 1
 687 1268 l 2
 719.607791472 1452.77748501 783.307103819 1600.2979252 947 1642.5 c 128
 989.666666667 1653.5 1036 1659 1086 1659 c 0
 1168.72379129 1659 1247.94101087 1620.93972091 1293.5 1584 c 128
 1305.83333333 1574 1312 1568.33333333 1312 1567 c 2
 1227 1442 l 1
 1181 1491.33333333 1133.66666667 1516 1085 1516 c 0
 984.475962323 1516 939.256919557 1491.46799085 911 1418 c 128
 901 1392 892.333333333 1358 885 1316 c 2
 807 869 l 1
 1055 869 l 1
 1037 764 l 1
 789 764 l 1
 656 0 l 2
 614.372805176 -235.887437337 525.706327733 -391 257 -391 c 0
 174.547823053 -391 95.9664883451 -352.86472028 50.5 -316 c 128
 38.1666666667 -306 32 -300.333333333 32 -299 c 2
 117 -174 l 1
 163 -223.333333333 210 -248 258 -248 c 0
 358.524037677 -248 403.743080443 -223.467990847 432 -150 c 128
 442 -124 450.666666667 -90 458 -48 c 2
 599 764 l 1
EndSplineSet
EndChar

StartChar: partialdiff
Encoding: 8706 8706 228
Width: 1059
Flags: HW
LayerCount: 2
Fore
SplineSet
487 809 m 0
 637.242268895 809 710.645560064 736.773175625 756 621 c 1
 773.963233389 725.186753655 786 831.924306388 786 946 c 0
 786 1081.42868657 758.379118758 1206 641 1206 c 0
 604.333333333 1206 562 1186.66666667 514 1148 c 128
 466 1109.33333333 430 1090 406 1090 c 256
 361.092844528 1090 322 1121.47948778 322 1165 c 0
 322 1263.84108511 458.357544636 1325 567 1325 c 0
 842.150291734 1325 961 1050.71254988 961 752 c 0
 961 528.666666667 912.833333333 343.333333333 816.5 196 c 128
 720.166666667 48.6666666667 601 -25 459 -25 c 0
 252.032939321 -25 104 144.065430097 104 354 c 0
 104 486 140.833333333 594.833333333 214.5 680.5 c 128
 288.166666667 766.166666667 379 809 487 809 c 0
291 270 m 0
 291 137.012369483 334.958225057 31 457 31 c 0
 529.666666667 31 589.5 74.3333333333 636.5 161 c 128
 683.5 247.666666667 707 358.666666667 707 494 c 0
 707 626.222505299 662.072816898 735 541 735 c 0
 468.333333333 735 408.5 692 361.5 606 c 128
 314.5 520 291 408 291 270 c 0
EndSplineSet
EndChar

StartChar: summation
Encoding: 8721 8721 229
Width: 1380
Flags: HW
LayerCount: 2
Fore
SplineSet
55 1473 m 1
 1313 1473 l 1
 1313 1280 l 1
 354 1280 l 1
 1026 563 l 1
 332 -201 l 1
 1339 -201 l 1
 1339 -393 l 1
 25 -393 l 1
 25 -244 l 1
 750 557 l 1
 55 1296 l 1
 55 1473 l 1
EndSplineSet
EndChar

StartChar: product
Encoding: 8719 8719 230
Width: 1550
Flags: HW
LayerCount: 2
Fore
SplineSet
156 1473 m 1
 1393 1473 l 1
 1393 -393 l 1
 1153 -393 l 1
 1153 1268 l 1
 395 1268 l 1
 395 -393 l 1
 156 -393 l 1
 156 1473 l 1
EndSplineSet
EndChar

StartChar: pi
Encoding: 960 960 231
Width: 1206
Flags: HW
LayerCount: 2
Fore
SplineSet
252 913 m 2
 169.586500944 913 139.402147405 859.749796771 129 780 c 1
 -31 780 l 1
 -12.3333333333 890.666666667 20.8333333333 966.833333333 68.5 1008.5 c 128
 116.166666667 1050.16666667 195 1071 305 1071 c 2
 1194 1071 l 1
 1159 913 l 1
 977 913 l 1
 872 426 l 2
 857.444629976 354.193507879 842 300.393682974 842 238 c 0
 842 161.96948517 868.980204517 131 944 131 c 0
 979.618380698 131 1004.60266617 135.676035969 1044 141 c 1
 1014 0 l 1
 978.764630235 -9.39609860393 943.845707556 -16 903 -16 c 0
 755.698207984 -16 664 44.1956178275 664 186 c 0
 664 216.666666667 667.5 256 674.5 304 c 128
 681.5 352 696.333333333 429.666666667 719 537 c 2
 799 913 l 1
 473 913 l 1
 279 0 l 1
 98 0 l 1
 293 913 l 1
 252 913 l 2
EndSplineSet
EndChar

StartChar: integral
Encoding: 8747 8747 232
Width: 1067
Flags: HW
LayerCount: 2
Fore
SplineSet
47 -223 m 0
 47 -146.022747571 97.5469614252 -104 176 -104 c 0
 248.871737028 -104 278.524101733 -150.150044385 287 -220.5 c 128
 290.333333333 -248.166666667 298.333333333 -262 311 -262 c 0
 381.666666667 -262 421.666666667 -32.6666666667 431 426 c 0
 432.333333333 498 433.333333333 553 434 591 c 0
 442 934.333333333 477.666666667 1180 541 1328 c 128
 604.333333333 1476 703.333333333 1550 838 1550 c 0
 935.58331352 1550 1018 1494.38561241 1018 1401 c 0
 1018 1328.71827841 971.571575548 1284 899 1284 c 0
 817.576352131 1284 787.942264674 1332.46188261 778.5 1408 c 128
 775.5 1432 768.666666667 1444 758 1444 c 0
 686.666666667 1444 646.333333333 1237.66666667 637 825 c 0
 634.333333333 696.333333333 631.666666667 595.333333333 629 522 c 0
 617.666666667 202.666666667 580.5 -26 517.5 -164 c 128
 454.5 -302 357.666666667 -371 227 -371 c 0
 130.278641513 -371 47 -315.894952377 47 -223 c 0
EndSplineSet
EndChar

StartChar: Omega
Encoding: 937 937 233
AltUni2: 002126.ffffffff.0
Width: 1565
Flags: HW
LayerCount: 2
Fore
SplineSet
301 809 m 0
 301 507.176730973 469.668379772 291.529029001 678 178 c 1
 678 0 l 1
 78 0 l 1
 78 178 l 1
 397 178 l 1
 291.666666667 270.666666667 214.833333333 366.666666667 166.5 466 c 128
 118.166666667 565.333333333 94 676.333333333 94 799 c 0
 94 1011 157.833333333 1182.66666667 285.5 1314 c 128
 413.166666667 1445.33333333 578.666666667 1511 782 1511 c 0
 984 1511 1149.16666667 1445.5 1277.5 1314.5 c 128
 1405.83333333 1183.5 1470 1015 1470 809 c 0
 1470 679.666666667 1446.33333333 565.666666667 1399 467 c 128
 1351.66666667 368.333333333 1274.33333333 272 1167 178 c 1
 1487 178 l 1
 1487 0 l 1
 887 0 l 1
 887 178 l 1
 1094.63151761 291.786763885 1262 507.394383427 1262 809 c 0
 1262 1114.57594289 1080.75670641 1339 782 1339 c 256
 483.793809536 1339 301 1113.67548725 301 809 c 0
EndSplineSet
EndChar

StartChar: notequal
Encoding: 8800 8800 234
Width: 1716
Flags: HW
LayerCount: 2
Fore
SplineSet
217 930 m 1
 989 930 l 1
 1245 1245 l 1
 1370 1143 l 1
 1196 930 l 1
 1499 930 l 1
 1499 762 l 1
 1059 762 l 1
 864 522 l 1
 1499 522 l 1
 1499 352 l 1
 725 352 l 1
 467 39 l 1
 342 141 l 1
 516 352 l 1
 217 352 l 1
 217 522 l 1
 655 522 l 1
 850 762 l 1
 217 762 l 1
 217 930 l 1
EndSplineSet
EndChar

StartChar: radical
Encoding: 8730 8730 235
Width: 1305
Flags: HW
LayerCount: 2
Fore
SplineSet
1116 1661 m 1
 1305 1661 l 1
 1305 1565 l 1
 1190 1565 l 1
 596 -41 l 1
 530 -41 l 1
 211 842 l 1
 86 797 l 1
 61 877 l 1
 344 975 l 1
 600 266 l 1
 1116 1661 l 1
EndSplineSet
EndChar

StartChar: lozenge
Encoding: 9674 9674 236
Width: 1012
Flags: HW
LayerCount: 2
Fore
SplineSet
506 1409 m 1
 121 592 l 1
 506 -233 l 1
 891 592 l 1
 506 1409 l 1
506 1653 m 1
 1006 592 l 1
 506 -477 l 1
 6 592 l 1
 506 1653 l 1
EndSplineSet
EndChar

StartChar: breve
Encoding: 728 728 239
Width: 1024
Flags: HW
LayerCount: 2
Fore
SplineSet
825 1608 m 1
 811.943125577 1421.28669575 709.2881012 1321 512 1321 c 256
 314.725658113 1321 212.055821284 1421.30175564 199 1608 c 1
 317 1608 l 1
 331.73320576 1507.54632436 396.488854258 1458 512 1458 c 0
 628.263556063 1458 689.88291568 1507.93089167 707 1608 c 1
 825 1608 l 1
EndSplineSet
EndChar

StartChar: ogonek
Encoding: 731 731 240
Width: 1024
Flags: HW
LayerCount: 2
Fore
SplineSet
569 -395 m 0
 422.604937326 -395 332 -352.002731332 332 -215 c 0
 332 -183 340.833333333 -149.5 358.5 -114.5 c 128
 376.166666667 -79.5 403.333333333 -41.3333333333 440 0 c 1
 559 0 l 1
 529 -40.6666666667 506.833333333 -75.6666666667 492.5 -105 c 128
 478.166666667 -134.333333333 471 -159.333333333 471 -180 c 0
 471 -245.098840981 512.467586358 -272 580 -272 c 0
 629.480697632 -272 668.66924945 -259.579395428 705 -242 c 1
 705 -375 l 1
 661.657641981 -386.405883689 618.105184905 -395 569 -395 c 0
EndSplineSet
EndChar

StartChar: infinity
Encoding: 8734 8734 241
Width: 1706
Flags: HW
LayerCount: 2
Fore
SplineSet
1411 621 m 0
 1411 748.092434447 1327.88288671 856 1204 856 c 0
 1149.33333333 856 1099.83333333 833.5 1055.5 788.5 c 128
 1011.16666667 743.5 964.333333333 667 915 559 c 1
 968.805785401 462.369201728 1047.79461755 381 1182 381 c 0
 1318.01652969 381 1411 483.945211343 1411 621 c 0
297 604 m 0
 297 476.907565553 380.117113286 369 504 369 c 0
 558.666666667 369 608.333333333 391.666666667 653 437 c 128
 697.666666667 482.333333333 744.333333333 558.666666667 793 666 c 1
 738.82527034 763.293392042 661.337600066 842 526 842 c 0
 388.593217755 842 297 742.509394288 297 604 c 0
1487 614 m 0
 1487 405.691207123 1383.10320915 225 1186 225 c 0
 1123.33333333 225 1067.16666667 244.833333333 1017.5 284.5 c 128
 967.833333333 324.166666667 916.666666667 390.333333333 864 483 c 1
 817.333333333 393 767.833333333 326.833333333 715.5 284.5 c 128
 663.166666667 242.166666667 605.666666667 221 543 221 c 0
 348.512172481 221 221 407.518227438 221 610 c 0
 221 818.169565265 324.952194132 1001 522 1001 c 0
 585.333333333 1001 642.5 980 693.5 938 c 128
 744.5 896 794 829 842 737 c 1
 887.333333333 829 936.333333333 896.833333333 989 940.5 c 128
 1041.66666667 984.166666667 1100.33333333 1006 1165 1006 c 0
 1254.33333333 1006 1330.33333333 968.5 1393 893.5 c 128
 1455.66666667 818.5 1487 725.333333333 1487 614 c 0
EndSplineSet
EndChar

StartChar: lessequal
Encoding: 8804 8804 242
Width: 651
Flags: HW
LayerCount: 2
Fore
SplineSet
-309 1132 m 1
 961 1597 l 1
 961 1429 l 1
 -121 1051 l 1
 961 673 l 1
 961 505 l 1
 -309 970 l 1
 -309 1132 l 1
EndSplineSet
EndChar

StartChar: greaterequal
Encoding: 8805 8805 243
Width: 651
Flags: HW
LayerCount: 2
Fore
SplineSet
961 970 m 1
 -309 505 l 1
 -309 673 l 1
 773 1051 l 1
 -309 1429 l 1
 -309 1597 l 1
 961 1132 l 1
 961 970 l 1
EndSplineSet
EndChar

StartChar: Delta
Encoding: 916 916 246
AltUni2: 002206.ffffffff.0
Width: 1012
Flags: HW
LayerCount: 2
Fore
SplineSet
506 1409 m 1
 171 632 l 1
 841 632 l 1
 506 1409 l 1
506 1653 m 1
 1006 540 l 1
 6 540 l 1
 506 1653 l 1
EndSplineSet
EndChar

StartChar: threesuperior
Encoding: 65541 -1 250
Width: 919
Flags: HW
LayerCount: 2
Fore
SplineSet
539 1106 m 1
 683.567887255 1082.86913804 811.410712012 1014.10724747 815 849 c 1
 815 692.0326027 687.72367379 618.130736791 557.5 589.5 c 128
 510.5 579.166666667 464 574 418 574 c 0
 289.740676341 574 183.148834539 609.425582731 98 652 c 1
 149 779 l 1
 149 779 149 779 171.5 768 c 128
 236.550688033 736.197441406 329.506833138 706 429 706 c 1
 520.703244555 707.910484262 598.872544096 736.843435166 633 795.5 c 128
 643.666666667 813.833333333 649 834.333333333 649 857 c 0
 649 906.333333333 627.5 946.5 584.5 977.5 c 128
 541.5 1008.5 475.666666667 1028 387 1036 c 1
 387 1171 l 1
 486.858418025 1171 567.306311733 1202.92836494 608 1263 c 128
 622 1283.66666667 629.333333333 1308.33333333 630 1337 c 0
 630 1444.58003057 529.34658948 1475 406 1475 c 0
 316.772909627 1475 233.843404146 1448.92170207 172 1418 c 1
 125 1545 l 1
 196.3986021 1580.69930105 300.804861185 1611 411 1611 c 0
 576.804592423 1611 715.422173756 1556.74931713 766.5 1440 c 128
 778.166666667 1413.33333333 784 1382.66666667 784 1348 c 0
 782.181625473 1224.35053218 702.71940168 1146.87933786 608.5 1118.5 c 128
 580.833333333 1110.16666667 557.666666667 1106 539 1106 c 1
EndSplineSet
EndChar

StartChar: twosuperior
Encoding: 65542 -1 251
Width: 889
Flags: HW
LayerCount: 2
Fore
SplineSet
588 1328 m 0
 588 1427.91387974 502.8508461 1469 399 1469 c 0
 312.268091909 1469 212.182010541 1443.53954375 141.5 1425 c 128
 111 1417 l 1
 111 1562 l 1
 133.5 1570 l 130
 208.318731659 1596.6022157 311.861905518 1612 417 1612 c 0
 541.582302081 1612 630.773816735 1575.37973917 688.5 1514 c 128
 730.513085076 1469.32785891 760 1406.2530567 760 1331 c 0
 760 1204.08716269 701.164122491 1132.84683612 633.5 1063 c 128
 602.5 1031 563.666666667 995.333333333 517 956 c 2
 326 794 l 1
 732 794 l 1
 732 642 l 1
 94 642 l 1
 94 779 l 1
 365 1019 l 2
 437.701901313 1083.14873645 496.207426492 1131.98173472 544.5 1199 c 128
 572.339466501 1237.63436168 588 1269.97870402 588 1328 c 0
EndSplineSet
EndChar

StartChar: onesuperior
Encoding: 65543 -1 252
Width: 617
Flags: HW
LayerCount: 2
Fore
SplineSet
345 649 m 1
 345 1494 l 1
 175 1422 l 1
 137 1515 l 1
 375 1610 l 1
 505 1584 l 1
 505 649 l 1
 345 649 l 1
EndSplineSet
EndChar

StartChar: uni0326
Encoding: 806 806 264
Width: 616
Flags: HW
LayerCount: 2
Fore
SplineSet
160 -420 m 1
 160 -177 l 1
 441 -177 l 1
 441 -376 l 2
 441 -561.358359057 355.337480644 -676.927238364 212 -723 c 1
 161 -629 l 1
 247.516891816 -592.571835025 291 -541.687375371 291 -420 c 1
 160 -420 l 1
EndSplineSet
EndChar

StartChar: uni0311
Encoding: 785 785 289
Width: 1024
Flags: HW
LayerCount: 2
Fore
SplineSet
199 1321 m 1
 212.056874423 1507.71330425 314.7118988 1608 512 1608 c 256
 709.274341887 1608 811.944178716 1507.69824436 825 1321 c 1
 707 1321 l 1
 689.882067504 1421.0740669 628.269345677 1471 512 1471 c 0
 396.487011351 1471 331.733463057 1421.45542994 317 1321 c 1
 199 1321 l 1
EndSplineSet
EndChar

StartChar: foursuperior
Encoding: 8308 8308 291
Width: 1277
Flags: HW
LayerCount: 2
Fore
SplineSet
801 1578 m 1
 929 1547 l 1
 929 777 l 1
 1080 777 l 1
 1080 666 l 1
 929 666 l 1
 929 405 l 1
 784 382 l 1
 784 666 l 1
 259 666 l 1
 237 776 l 1
 801 1578 l 1
396 776 m 1
 784 776 l 1
 784 1335 l 1
 663.799349703 1139.53398363 527.24012325 960.426543417 396 776 c 1
EndSplineSet
EndChar

StartChar: minus
Encoding: 8722 8722 292
Width: 1716
Flags: HW
LayerCount: 2
Fore
SplineSet
217 727 m 1
 1499 727 l 1
 1499 557 l 1
 217 557 l 1
 217 727 l 1
EndSplineSet
EndChar

StartChar: Euro
Encoding: 65544 -1 293
Width: 1036
Flags: HW
LayerCount: 2
Fore
SplineSet
900 987 m 1
 845.737875944 1037.29172474 775.954517486 1069 672 1069 c 256
 466.220075825 1069 374.596005885 941.765566527 339 772 c 1
 588 772 l 1
 588 641 l 1
 322 641 l 1
 321.333333333 633 321 624.833333333 321 616.5 c 130
 321 567 l 130
 321 559 321.333333333 551.333333333 322 544 c 1
 588 544 l 1
 588 413 l 1
 339 413 l 1
 374.484647517 237.44437544 471.424309402 111 672 111 c 0
 776.406668087 111 846.031905916 143.664495872 900 195 c 1
 900 17 l 1
 837.266981631 -12.4461106629 762.129828876 -31 672 -31 c 0
 363.578340363 -31 208.392559318 161.740897327 155 413 c 1
 0 413 l 1
 0 544 l 1
 136 544 l 1
 135.333333333 552 135 559.833333333 135 567.5 c 130
 135 615.5 l 130
 135 623.833333333 135.333333333 632.333333333 136 641 c 1
 0 641 l 1
 0 772 l 1
 153 772 l 1
 193.618471954 968.999588976 302.001675112 1114.00061613 476 1178 c 128
 534 1199.33333333 599.333333333 1210 672 1210 c 0
 764.430054978 1210 836.855601971 1192.25669072 900 1162 c 1
 900 987 l 1
EndSplineSet
EndChar

StartChar: dotaccentcmb
Encoding: 775 775 336
Width: 463
Flags: HW
LayerCount: 2
Fore
SplineSet
124 1462 m 256
 124 1528.00524416 169.795266462 1577 236 1577 c 0
 299.687372009 1577 344 1525.50326359 344 1462 c 256
 344 1398.49499432 299.686271739 1347 236 1347 c 0
 169.185359666 1347 124 1395.52699946 124 1462 c 256
EndSplineSet
EndChar

StartChar: commaaccent
Encoding: 65549 -1 337
Width: 651
Flags: HW
LayerCount: 2
Fore
SplineSet
185 410 m 1
 185 653 l 1
 466 653 l 1
 466 454 l 2
 466 268.641640943 380.337480644 153.072761636 237 107 c 1
 186 201 l 1
 272.516891816 237.428164975 316 288.312624629 316 410 c 1
 185 410 l 1
EndSplineSet
EndChar

StartChar: grave.cap
Encoding: 65550 -1 338
Width: 940
Flags: HW
LayerCount: 2
Fore
SplineSet
565 1498 m 1
 498 1472 l 1
 170 2027 l 1
 412 2116 l 1
 565 1498 l 1
EndSplineSet
EndChar

StartChar: acute.cap
Encoding: 65551 -1 339
Width: 936
Flags: HW
LayerCount: 2
Fore
SplineSet
428 1472 m 1
 371 1498 l 1
 530 2109 l 1
 762 2018 l 1
 428 1472 l 1
EndSplineSet
EndChar

StartChar: circumflex.cap
Encoding: 65552 -1 340
Width: 736
Flags: HW
LayerCount: 2
Fore
SplineSet
156 1472 m 1
 28 1550 l 1
 320 2051 l 1
 416 2051 l 1
 708 1550 l 1
 580 1472 l 1
 368 1849 l 1
 156 1472 l 1
EndSplineSet
EndChar

StartChar: dieresis.cap
Encoding: 65553 -1 341
Width: 1140
Flags: HW
LayerCount: 2
Fore
SplineSet
215 1473 m 256
 215 1539.00524416 260.795266462 1588 327 1588 c 0
 390.687372009 1588 435 1536.50326359 435 1473 c 256
 435 1409.49499432 390.686271739 1358 327 1358 c 0
 260.185359666 1358 215 1406.52699946 215 1473 c 256
705 1473 m 256
 705 1539.00524416 750.795266462 1588 817 1588 c 0
 880.687372009 1588 925 1536.50326359 925 1473 c 256
 925 1409.49499432 880.686271739 1358 817 1358 c 0
 750.185359666 1358 705 1406.52699946 705 1473 c 256
EndSplineSet
EndChar

StartChar: caron.cap
Encoding: 65554 -1 342
Width: 736
Flags: HW
LayerCount: 2
Fore
SplineSet
368 1674 m 1
 580 2051 l 1
 708 1973 l 1
 416 1472 l 1
 320 1472 l 1
 28 1973 l 1
 156 2051 l 1
 368 1674 l 1
EndSplineSet
EndChar

StartChar: ring.cap
Encoding: 65555 -1 343
Width: 573
Flags: HW
LayerCount: 2
Fore
SplineSet
429 1495 m 256
 429 1581.2612173 373.966595752 1644 288 1644 c 0
 202.494007648 1644 143 1580.15740105 143 1495 c 0
 143 1410.32100593 203.748439987 1346 288 1346 c 0
 373.613997951 1346 429 1409.24484077 429 1495 c 256
290 1735 m 0
 403.640955288 1735 475.692021318 1672.48863211 508.5 1590 c 128
 520.166666667 1560.66666667 526 1529 526 1495 c 256
 526 1382.67442997 467.272943096 1307.4232868 386.5 1274 c 128
 357.5 1262 325.333333333 1256 290 1256 c 0
 175.345639109 1256 96.7729063389 1317.79306139 63.5 1400.5 c 128
 51.8333333333 1429.5 46 1461 46 1495 c 0
 46 1609.39312819 108.878469193 1683.75138768 192 1717 c 128
 222 1729 254.666666667 1735 290 1735 c 0
EndSplineSet
EndChar

StartChar: tilde.cap
Encoding: 65556 -1 344
Width: 871
Flags: HW
LayerCount: 2
Fore
SplineSet
272 1431 m 0
 220.094596771 1431 213 1381.36320535 213 1316 c 1
 57 1316 l 1
 57 1489.33333333 124 1576 258 1576 c 0
 336.481077157 1576 396.647438512 1542.86229385 448.5 1513.5 c 128
 493.151664549 1488.21532248 541.453545217 1451 602 1451 c 0
 641.333333333 1451 661 1488 661 1562 c 1
 817 1562 l 1
 817 1450.44011556 778.11937316 1367.32813287 704.5 1330 c 128
 680.833333333 1318 654.333333333 1312 625 1312 c 0
 508.109657893 1312 417.177774311 1373.46608356 337 1412.5 c 128
 311.666666667 1424.83333333 290 1431 272 1431 c 0
EndSplineSet
EndChar

StartChar: dotaccentcmb.cap
Encoding: 65557 -1 345
Width: 463
Flags: HW
LayerCount: 2
Fore
SplineSet
124 1462 m 256
 124 1528.00524416 169.795266462 1577 236 1577 c 0
 299.687372009 1577 344 1525.50326359 344 1462 c 256
 344 1398.49499432 299.686271739 1347 236 1347 c 0
 169.185359666 1347 124 1395.52699946 124 1462 c 256
EndSplineSet
EndChar

StartChar: dotlessj
Encoding: 567 567 346
Width: 545
Flags: HW
LayerCount: 2
Fore
SplineSet
-37 -258 m 1
 68.2131807472 -190.475122804 136.873058786 -106.669985858 147 46.5 c 128
 149.666666667 86.8333333333 151 130 151 176 c 2
 151 1169 l 1
 341 1169 l 1
 341 154 l 2
 341 -64.8800279008 264.705954852 -228.050930851 136 -316 c 128
 96 -343.333333333 54 -362.333333333 10 -373 c 1
 -37 -258 l 1
133 1462 m 256
 133 1528.00524416 178.795266462 1577 245 1577 c 0
 308.687372009 1577 353 1525.50326359 353 1462 c 256
 353 1398.49499432 308.686271739 1347 245 1347 c 0
 178.185359666 1347 133 1395.52699946 133 1462 c 256
EndSplineSet
EndChar
